<?xml version="1.0"?>
<svg xmlns:rdf="http://www.w3.org/1999/02/22-rdf-syntax-ns#" xmlns="http://www.w3.org/2000/svg" xmlns:cc="http://creativecommons.org/ns#" xmlns:dc="http://purl.org/dc/elements/1.1/" xmlns:svg="http://www.w3.org/2000/svg" id="svg2" viewBox="0 0 286 268" version="1.0">
  <g id="layer1">
    <path id="path1446" d="m261.67 0.45027c-0.36-0.14009-1.16 0.45466-1.88 1.5-0.56 0.8211-1.9 2.6595-2.97 4.0625-1.06 1.403-3.01 4.4842-4.34 6.8442-1.33 2.359-2.75 4.715-3.13 5.25-0.37 0.534-0.68 1.154-0.68 1.375 0 0.755 0.98 0.411 1.75-0.625 0.42-0.57 1.44-2.401 2.28-4.063 1.57-3.133 3.39-5.9338 7.03-10.75 1.17-1.5496 2.12-2.9741 2.12-3.1875 0-0.22074-0.06-0.35953-0.18-0.40623zm-23.6 3.75c-0.54 0.2056-1.12 0.8453-1.78 1.9375-2.06 3.416-3.93 12.978-3.59 18.312 0.5 7.886 1.08 13.654 1.53 15.125 0.23 0.761 0.84 0.505 1.37-0.562 0.36-0.707 0.61-3.293 0.79-8.688 0.35-10.903 0.6-12.772 2.53-18.781 1.42-4.4268 1.57-5.8092 0.78-6.6875-0.57-0.6261-1.08-0.8619-1.63-0.6562zm-208.43 4.3125c-0.125 0-0.411 0.3258-0.656 0.7187-0.377 0.6038-0.245 1.1785 0.937 3.7505 0.77 1.673 1.613 3.726 1.875 4.531 0.577 1.768 4.715 10.771 5.25 11.437 0.239 0.297 0.503 0.342 0.719 0.125 0.346-0.345-0.731-3.177-2.5-6.625-0.468-0.912-1.273-2.9-1.812-4.406s-1.13-2.892-1.282-3.094c-0.151-0.201-0.722-1.744-1.281-3.406-0.558-1.6623-1.125-3.0312-1.25-3.0312zm181.34 1.125c-1.16 0-1.61 1.1752-1.13 3.0002 0.55 2.052 2.16 4.811 5.22 9.062 3.16 4.378 5.44 8.269 8.94 15.125 2.48 4.862 3.23 5.833 3.88 5.188 0.22-0.228-1.52-5.26-2.41-6.938-0.32-0.604-1.68-3.311-3-6.031-2.51-5.18-7.64-14.143-7.88-15.062-0.48-1.914-2.51-4.3442-3.62-4.3442zm-153.88 2.0622c-0.591-0.134-1.235 0.327-1.969 1.407-0.763 1.122-0.802 1.553-0.75 7 0.031 3.194 0.231 7.714 0.469 10.031 0.84 8.179 1.756 15.12 2.469 18.969 0.084 0.453 0.297 0.812 0.5 0.812 0.772 0 1.162-2.049 0.937-5.125-0.543-7.423-0.858-17.896-0.562-19.594 0.175-1.007 0.491-3.611 0.687-5.781 0.291-3.221 0.254-4.235-0.187-5.5-0.472-1.353-1.003-2.085-1.594-2.219zm20.656 0.125c-0.285 0-0.597 0.359-0.687 0.813-0.382 1.924-0.916 5.361-1.125 7.062-0.124 1.008-0.585 3.052-1 4.563-0.416 1.511-0.856 3.499-1 4.406-0.145 0.907-0.783 3.471-1.407 5.688-1.505 5.353-2.072 8.072-1.75 8.593 0.452 0.731 1.115 0.188 1.375-1.125 1.147-5.78 1.606-7.917 2.344-10.781 1.098-4.261 2.607-10.941 2.906-12.812 0.129-0.806 0.481-2.235 0.782-3.188 0.585-1.857 0.402-3.219-0.438-3.219zm109.88 0.157c-0.36-0.217-0.5-0.169-0.5 0.093 0 0.802 1.87 2.659 4.84 4.813 1.15 0.836 5.27 4.647 9.16 8.469 3.88 3.821 7.26 6.963 7.5 6.968 1.04 0.023 0.81-0.873-0.5-1.937-1.59-1.289-5.99-5.427-9.63-9.031-2.85-2.818-4.62-4.378-5.87-5.188-0.51-0.325-1.96-1.54-3.22-2.687-0.88-0.796-1.43-1.284-1.78-1.5zm80.56 2.062c-0.75 0.044-1.44 0.252-2 0.625-1.22 0.801-7.49 6.897-10.13 9.844-1.06 1.188-2.31 2.578-2.78 3.094s-2.24 3.361-2.56 3.625c-0.32 0.263-1.35 1.576-2.25 2.937s-2.32 3.131-3.16 3.938c-0.83 0.813-1.39 1.649-1.25 1.875 0.14 0.223 0.36 0.412 0.5 0.406 0.36-0.018 5.39-4.832 5.78-5.531 0.18-0.321 1.5-1.565 2.91-2.782s3.54-3.166 4.75-4.312 4.98-4.132 5.69-4.781c0.7-0.65 2.39-1.74 3.75-2.407 1.64-0.804 2.78-1.634 3.37-2.5 1.45-2.117 1.38-3.099-0.22-3.656-0.83-0.292-1.65-0.419-2.4-0.375zm-248.56 9.656c-0.794-0.049-1.375 0.271-1.375 0.969 0 1.34 1.161 3.603 2.313 4.5 0.637 0.496 2.899 2.604 5.031 4.688 2.132 2.083 4.813 4.444 5.969 5.25 1.155 0.805 2.969 2.218 4.031 3.125 4.321 3.688 5.258 4.461 6.781 5.687 0.876 0.705 1.941 1.256 2.375 1.25 0.772-0.011 0.77-0.018-0.125-0.812-0.504-0.448-1.547-1.672-2.312-2.719s-1.688-1.984-2.032-2.094c-0.343-0.11-1.343-1.074-2.25-2.125-0.906-1.051-1.991-2.244-2.406-2.656s-2.254-2.491-4.094-4.625c-1.839-2.134-4.565-4.928-6.031-6.219-1.465-1.291-2.944-2.671-3.312-3.031-0.761-0.745-1.769-1.139-2.563-1.188zm265.75 7.969c-0.26-0.066-0.74-0.026-1.63 0.094-1.06 0.143-3.89 0.505-6.31 0.781-4.02 0.458-9.69 1.374-11.28 1.844-0.36 0.104-0.63 0.443-0.63 0.75 0 0.628 0.61 0.58 6.6-0.594 1.91-0.375 5.11-0.781 7.12-0.906 5.72-0.357 6.41-0.507 6.41-1.375 0-0.346-0.03-0.528-0.28-0.594zm-100.6 3.969c-1.21 0.006-2.78 1.25-2.78 2.219 0 0.799 1.92 2.472 3.22 2.781 0.54 0.128 1.14 0.355 1.34 0.5 1.28 0.919 9.87 2.979 14.47 3.469 1.31 0.139 4.54 0.706 7.16 1.281s5.67 1.166 6.78 1.312 2.52 0.483 3.12 0.75c1.6 0.706 2.97 0.516 2.82-0.406-0.17-1.035-1.48-1.942-3.19-2.219-0.81-0.13-7.8-2.627-10.81-3.093-1.51-0.235-5.98-1.575-7.69-2.063s-4.28-1.363-5.69-1.937c-3.53-1.44-7.46-2.601-8.75-2.594zm-83.84 3.531c-1.158-0.249-3.516 0.623-6.751 2.688-1.582 1.008-6.474 4.315-8.313 5.781-1.99 1.586-11.153 6.737-12.031 7.687-0.744 0.806-4.688 2.889-4.688 3.063s0.304 0.32 0.657 0.312c1.201-0.026 10.281-4.101 19.25-7.906 1.583-0.672 4.577-2.194 6.625-3.406 3.196-1.892 3.891-2.482 4.901-4.156 1.48-2.442 1.51-3.814 0.35-4.063zm-99.501 0.656c-0.3023-0.001-0.50597 0.131-0.75003 0.375-0.71729 0.718-0.54193 0.838 2 1.5 1.1775 0.307 2.3155 0.696 2.5312 0.875s1.214 0.536 2.2188 0.782c1.0047 0.245 1.9965 0.577 2.2187 0.75 0.2222 0.172 2.2106 0.873 4.4066 1.562 4.596 1.442 4.906 1.503 4.906 0.813 0-0.612-1.534-1.242-8.063-3.375-2.7197-0.889-5.2529-1.806-5.6558-2-0.403-0.195-1.4802-0.598-2.375-0.907-0.723-0.249-1.1352-0.373-1.4375-0.375zm234.97 5.875c-0.77 0.224-1.69 1.01-3.03 2.438-1.16 1.221-3.18 3.313-4.5 4.656-1.33 1.343-2.71 2.899-3.07 3.469-0.35 0.569-1.76 2.298-3.12 3.844-1.36 1.545-3.16 3.99-4 5.406-2.1 3.534-4.43 9.545-4.44 11.344 0 0.993-0.51 2.388-1.53 4.375-3.28 6.351-6.03 13.91-6.88 18.878-0.25 1.51-0.54 3.1-0.62 3.53-0.19 1-1.59 1.14-13.78 1.44-7.53 0.18-9.12 0.13-9.28-0.29-0.11-0.27-0.03-1.83 0.15-3.46 0.31-2.726 4.74-13.779 5.03-14.223 0.3-0.445 3.21-8.04 3.69-9.344 0.49-1.305 1.27-2.773 1.75-3.281 2.98-3.125 0.74-5.618-2.56-2.844-2.2 1.849-3.7 2.812-4.34 2.812-0.91 0-0.77-2.26 0.18-3.125 0.43-0.383 1.18-1.41 1.69-2.281 0.83-1.418 0.91-1.731 0.53-2.937-0.24-0.78-1.44-2.397-2.81-3.844-1.31-1.377-2.47-2.935-2.59-3.438-0.15-0.594 0.11-1.781 0.78-3.437 0.63-1.188 0.72-2.375 0.28-3.563-0.41-0.547-1.16-1.23-1.69-1.531-0.86-0.491-1.09-0.482-2 0.063-0.56 0.333-1.33 1.132-1.72 1.781-0.62 1.05-0.65 1.374-0.25 2.875 0.25 0.927 0.71 1.929 1 2.25 0.74 0.817 0.64 1.593-0.28 2.406-0.87 0.772-2.11 3.27-2.12 4.25-0.02 1.496 1.56 4.619 3.28 6.5 1.81 1.981 2.85 4.052 2.4 4.781-0.34 0.558-1.92 0.457-4.78-0.312-2.49-0.672-6.03-2.115-6.03-1 0 0.071 0.79 1.815 1.78 3.906 3.08 6.505 4.97 14.383 5.75 24.186 0.24 2.96 0.19 3.19-0.5 3.41-0.4 0.13-3.5 0.3-6.9 0.37-3.41 0.08-8.01 0.32-10.22 0.53-3.63 0.35-6.79 0.61-16.63 1.38l-3.06 0.25 0.19-5.47c0.11-3 0.38-6.274 0.59-7.281s0.62-3.139 0.94-4.719c0.31-1.58 1.06-3.884 1.65-5.125 0.6-1.24 1.46-3.575 1.91-5.187 0.46-1.612 1.11-3.372 1.47-3.906 0.9-1.338 0.89-2.5-0.06-2.5-0.75 0-2.44 0.869-3.13 1.625-0.66 0.727-3.11 2.031-3.84 2.031-0.98 0-0.93-1.095 0.22-4.375 0.63-1.815 0.85-3.009 0.68-3.75-0.3-1.368-2.39-3.712-3.84-4.313-0.6-0.249-1.09-0.66-1.09-0.906s0.5-1.478 1.12-2.719c1.01-2.014 1.09-2.384 0.72-3.5-0.44-1.346-0.95-1.687-2.56-1.687-0.72 0-1.37 0.411-2.16 1.312-1.64 1.87-1.74 2.77-0.62 5.063 0.52 1.075 0.93 2.059 0.93 2.187 0 0.129-0.61 0.808-1.37 1.5-1.23 1.123-1.38 1.447-1.38 3.032 0 2.159 1.59 4.843 3.85 6.5 0.81 0.592 1.47 1.298 1.47 1.562 0 0.666-2.86 0.626-4.5-0.062-1-0.419-1.53-0.461-2.41-0.157-0.62 0.217-1.16 0.478-1.16 0.563 0 0.234 1.7 2.675 3.13 4.531 1.44 1.868 3.83 6.609 4.72 9.344 0.98 3.036 1.76 7.797 2.31 14.157 0.17 1.89 0.09 2.1-0.69 2.53-1.01 0.56-5.77 1.27-11.84 1.78-2.42 0.2-5.53 0.53-6.94 0.72-7.6 1.04-17.11 1.95-17.37 1.66-0.46-0.51 0.17-13.831 0.84-17.753 0.85-4.971 1.32-6.907 2.06-8.782 2.24-5.644 2.74-6.713 3.35-7.093 0.83-0.523 0.87-2.003 0.06-2.313-0.33-0.128-1.62 0.259-2.94 0.906-3.86 1.906-4.15 1.599-2.12-2.281 1.84-3.537 1.68-4.841-0.85-7.031l-1.31-1.125 0.38-2.531c0.34-2.182 0.34-2.605-0.16-3-0.84-0.668-2.08-0.557-2.813 0.25-0.774 0.856-1.205 3.485-0.625 3.843 0.74 0.457 0.447 2.108-0.906 4.844-1.32 2.672-1.624 4.602-1.187 7.844 0.102 0.759-0.029 0.937-0.844 1.031-0.541 0.062-1.486-0.154-2.094-0.469-1.178-0.609-2.451-0.733-2.719-0.281-0.089 0.151 0.576 1.402 1.469 2.813 2.477 3.911 3.946 7.265 5.344 12.093 1.252 4.324 1.846 7.195 2.465 11.905 0.4 3 0.46 7.25 0.1 7.47-0.37 0.22-7.966 1.09-9.784 1.13-1.426 0.02-1.46-0.01-1.969-1.82-1.22-4.34-3.263-10.1-3.75-10.59-0.197-0.2-1.033-2.997-1.843-4.751-1.365-2.955-1.451-3.369-1.25-5.469 0.178-1.863 0.092-2.526-0.532-3.718-0.417-0.799-2.164-3.49-2.593-4.313s-4.16-7.009-7.907-11.281c-1.393-1.914-3.157-3.785-3.531-4.188-0.373-0.403-1.281-1.499-2.031-2.406-3.484-4.211-7.152-6.768-9.188-6.437-1.406 0.228-1.866 0.706-1.875 1.968-0.006 0.904 1.505 2.62 8.594 9.782 4.93 4.98 7.375 8.332 10.688 14.656 1.266 2.418 2.673 5.109 3.125 5.969 0.64 1.219 1.106 1.654 2.156 1.937 1.02 0.275 1.457 0.63 1.812 1.531 0.258 0.654 1.052 2.427 1.75 3.938 2.855 6.172 5.496 14.772 4.813 15.592-0.433 0.52-2.644 1.14-5.281 1.47-3.654 0.45-6.868 1.97-7.25 3.44-0.103 0.39 9.551 26.5 10.25 28.22 2.31 5.66 6.343 18.21 6.343 19.78 0 0.41-2.032 1.03-4.781 1.47-1.108 0.17-15.131 2.75-15.937 2.81s-10.866 1.4-13.011 2.15c-0.115 2.16 1.638 7.04 2.807 11.43 0.45 1.7 5.447 19.31 5.672 20.17 0.383 1.45 0.339 1.62-0.625 2.91-1.937 2.58-17 16.38-17 16.93 0 0.45 2.722 3.83 5.125 6.38 3.426 3.63 12.272 14.32 12.719 14.84 2.517 2.96 4.43 6.79 5.99 7.43 2.133 0.41 29.654-6.6 30.764-6.9 1.1-0.3 12.33-3.07 15.37-3.28 3.46-0.23 4.1-0.02 8.56 3 3.54 2.39 30.22 18.7 31.47 19.66 1.45 1.31 2.49 1.57 3.19 1.37 2.49-0.82 2.92-1.2 4.81-2.22l42.44-22.37s16.05-27.51 15.75-28.56c-0.21-0.74-10.62-11.53-15.09-15.63-0.95-0.87-1.75-1.92-1.75-2.31 0-0.4 0.79-2.19 1.75-4 0.95-1.82 2.24-4.25 2.84-5.41 0.6-1.15 1.68-3.1 2.41-4.31 0.72-1.21 16.12-27.89 16.65-28.91 1.08-1.88 2.39-3.9 2.16-4.28-0.27-0.43-1.63-0.23-3.63 0.07-1.38 0.2-14.55 1.37-17.97 1.87-4.15 0.61-12.63 1.45-12.93 1.26-0.27-0.6 0.82-3.33 2.93-6.26 2.31-3.19 20.96-32.99 21.88-34.37 3.27-4.92 3.15-4.64 2.47-5.32-0.71-0.71-2.99-0.98-11.91-1.5-3.67-0.21-6.58-0.54-6.87-0.78-0.61-0.51-0.65-3.19-0.1-5.905 0.52-2.539 1.75-6.599 2.16-7.093 0.18-0.214 0.81-1.678 1.41-3.282 1.74-4.695 3.67-7.825 5.5-8.968 0.87-0.545 2.46-2.054 3.56-3.344 1.09-1.29 2.22-2.573 2.5-2.875s1.28-1.888 2.25-3.5c0.96-1.612 4.68-6.38 5.25-7.625 0.57-1.246 3.78-5.892 4.75-6.938 3.07-3.322 4.81-5.658 4.81-6.375 0-0.382-0.46-1.259-1.03-1.937-0.7-0.835-1.29-1.161-2.06-0.938zm12.75 0c-1.07 0.147-1.78 0.504-1.88 1-0.16 0.864 0.67 1.187 5.06 2.094 5.71 1.178 11.81 3.043 17.04 5.156 1.61 0.652 4.23 1.477 5.84 1.844 4.11 0.935 5.88 0.911 6.56-0.062 0.35-0.492 0.43-1.052 0.25-1.532-0.3-0.83-2.38-2.093-3.44-2.093-0.36 0-6.74-1.995-10.31-2.688-1.61-0.313-3.86-0.834-4.97-1.125-6.36-1.67-7.72-1.981-10.12-2.406-1.54-0.273-2.97-0.334-4.03-0.188zm-67.47 5.719c0.34 0.012 0.65 0.18 0.9 0.531 0.69 0.93 0.61 1.582-0.34 3.25-0.45 0.791-0.99 1.489-1.22 1.563-0.52 0.17-1.59-1.451-1.59-2.406 0-1.636 1.21-2.973 2.25-2.938zm62.69 3.313c-0.51-0.16-0.85 0.058-0.85 0.656 0 0.382 0.54 1.169 1.19 1.75 1.49 1.318 2.74 3.017 6.84 9.281 1.79 2.728 3.82 5.521 4.47 6.219 0.66 0.697 1.6 1.851 2.13 2.562 1.13 1.536 3.41 4.327 5.12 6.282 1.25 1.422 1.97 1.699 2.97 1.062 0.47-0.302 0.4-0.636-0.47-2.312-0.95-1.832-2.33-3.71-4.19-5.657-0.44-0.463-1.53-1.862-2.43-3.125-0.91-1.263-2.21-2.928-2.91-3.687s-2.24-2.574-3.41-4.031c-1.16-1.458-2.8-3.375-3.65-4.282-0.86-0.906-2.16-2.362-2.91-3.218-0.71-0.825-1.4-1.341-1.9-1.5zm-44.22 1.656c-1.97 0.058-3.37 0.21-3.63 0.469-0.21 0.212-0.31 0.395-0.22 0.406s2.2 0.103 4.72 0.187c2.52 0.085 5.75 0.294 7.16 0.469 3.73 0.463 4.14 0.479 4.37 0.094 0.43-0.687-1.38-1.188-5.4-1.469-2.53-0.176-5.04-0.215-7-0.156zm-183.44 0.406c-2.165-0.101-4.047 0.041-4.563 0.469-1.365 1.133-1.263 2.848 0.188 3.625 0.368 0.197 1.902 0.69 3.406 1.094 2.384 0.638 4.043 0.736 13.125 0.812 5.73 0.048 13.435 0.5 15.094 0.5 2.437 0 3.031-0.119 3.031-0.562 0-0.439-0.73-0.565-3.656-0.719-2.015-0.106-6.095-1.158-7.188-1.281-2.781-0.314-9.882-1.923-13.156-2.969-1.657-0.529-4.116-0.868-6.281-0.969zm120.84 0.531c0.97 0.184 1.02 1.806 0.13 3.563-0.89 1.74-2.02 1.991-2.66 0.594-0.72-1.582 1.03-4.441 2.53-4.157zm44 2.75c0.36 0.212 0.82 0.698 1.63 1.594 4.03 4.481 4.53 6.442 2.19 8.594-0.76 0.694-1.63 1.28-1.94 1.281-0.69 0.002-2.85-2.267-3.94-4.094-1.43-2.396-0.83-6.266 1.13-7.312 0.36-0.196 0.58-0.274 0.93-0.063zm83.72 2.657c-1.18 0-0.3 1.083 1.97 2.406 1.36 0.79 4.52 3.064 7.03 5.031 2.52 1.968 4.76 3.508 4.97 3.438 0.92-0.305 0.22-1.24-2-2.719-1.31-0.874-2.72-1.915-3.12-2.281-1.35-1.223-8.35-5.875-8.85-5.875zm-29.65 0.062c-0.6 0.102-0.64 1.318 0.09 2.688 0.32 0.604 0.98 2.155 1.47 3.437s1.44 3.586 2.12 5.125c0.69 1.539 1.67 3.965 2.19 5.375 0.53 1.41 1.27 3.368 1.66 4.375 0.38 1.007 1.13 3.256 1.65 5 0.99 3.306 1.97 4.939 3.28 5.469 1.09 0.438 1.18 0.433 1.69-0.188 0.98-1.174 0.14-3.589-4.53-13.093-2.55-5.186-4.62-9.534-4.62-9.657 0-0.522-3.76-7.831-4.22-8.218-0.31-0.252-0.59-0.347-0.78-0.313zm-98.1 2.875c0.38 0.001 1.31 0.595 2.1 1.313 2.88 2.341 1.28 5.556 0.28 7.437-1.3 1.817-2.96 1.328-4.97-1.469-1.67-2.32-1.9-3.293-1.06-4.718 0.75-1.274 2.59-2.566 3.65-2.563zm-36.47 2.969c0.45 0.051 1.02 0.288 1.57 0.719 0.71 0.558 0.96 1.097 0.96 2.031 0 1.448-1.46 4.588-2.75 5.875-1.125 1.13-2.15 1.107-2.683-0.063-0.504-1.106-0.562-4.471 1.438-6.968 0.394-0.357 1.025-1.645 1.465-1.594zm-43.528 2.969c-0.374 0.162-0.852 0.534-1.25 1.062-2.217 2.95-7.575 8.303-11.156 11.156-5.421 4.32-8.728 8.059-9.656 10.907-0.385 1.18-0.346 1.514 0.156 2.281 0.747 1.139 2.423 1.212 3.906 0.156 1.196-0.851 4.641-5.195 8.094-10.156 5.812-8.352 8.221-11.759 9.344-13.25 0.667-0.886 1.187-1.734 1.187-1.906 0-0.357-0.25-0.413-0.625-0.25zm132.44 3.125c0.53 0.037 0.57 0.461 0.16 1.281-0.23 0.457-0.85 2.138-1.38 3.75s-1.47 4.089-2.12 5.5c-0.66 1.41-1.66 3.801-2.22 5.312s-1.41 3.76-1.88 4.969c-0.81 2.087-1.82 2.993-2.15 1.938-0.09-0.267-0.24-1.708-0.35-3.219s-0.54-3.902-0.97-5.313c-1.96-6.521-2.62-8.45-3.53-10.312-1.33-2.727-0.99-3.018 2.53-2.188 4.27 1.004 5.56 0.914 8.85-0.656 1.54-0.739 2.53-1.1 3.06-1.062zm-155.56 4.625c-0.269 0.324-2.986 1.392-5 2.375-2.013 0.982-4.058 1.924-4.562 2.062s-1.253 0.379-1.656 0.563c-1.364 0.62-6.599 1.931-8.625 2.156-1.73 0.191-2.025 0.355-2.125 1.062-0.142 0.997 0.712 1.07 2.781 0.282 0.76-0.29 3.679-1.251 6.5-2.157 5.441-1.747 14.839-5.408 16.219-6.312 1.855-1.216-3.118-0.53-3.532-0.031zm110.72-1.5c1.2-0.133 1.02 0.894-0.1 4.031-2.54 7.107-2.99 8.588-3.34 11.031-0.2 1.384-0.45 2.666-0.56 2.844-0.41 0.662-1.25 0.303-1.25-0.531 0-2.726-3.28-10.27-6-13.875-0.77-1.016-1.29-1.933-1.16-2.063s2.18-0.249 4.53-0.25c3.33-0.001 4.69-0.162 6.19-0.719 0.72-0.267 1.29-0.424 1.69-0.468zm82.75 1.592c4.12 8.569 4.49 9.414 5.47 12 0.52 1.383 1.02 2.622 1.12 2.781 0.33 0.527 1.25 0.327 1.25-0.281 0-0.328-0.56-1.697-1.25-3.031s-1.68-3.329-2.19-4.438c-0.5-1.108-1.98-4.248-3.28-6.968-1.3-2.721-2.45-2.824-1.12-0.063zm-122.79 0.372c0.49 0.008 0.72 0.198 0.72 0.594 0 0.347-0.47 2.205-1.06 4.125-0.91 2.669-1.8 7.369-2.03 8.578-0.24 1.209-0.52 2.779-0.66 3.469-0.28 1.367-0.86 1.769-1.44 1.031-0.2-0.258-0.745-1.708-1.186-3.219-1.202-4.118-2.726-9.694-3.902-11.292-0.578-0.787-0.983-1.576-0.875-1.75 0.108-0.175 1.453-0.216 3-0.094 2.101 0.165 3.993-0.446 5.183-0.879 1.05-0.379 1.77-0.571 2.25-0.563zm-41.433 7.348c-0.198 0.162-0.343 0.693-0.343 1.531 0 0.753-0.564 3.081-1.25 5.188-1.364 4.184-2.356 7.962-2.813 10.812-0.966 6.02 0.676 1.27 0.969-0.31s1.121-4.812 1.844-7.158c2.23-7.245 2.486-8.247 2.218-9.313-0.174-0.695-0.427-0.912-0.625-0.75zm136.31 19.221c1.37-0.31 17.14 0.34 21.12 0.87 2.48 0.34 3.41 0.99 2.75 1.91-0.25 0.36-12.18 18.62-12.9 19.97-0.41 0.75-0.94 1.37-1.16 1.37s-5.74-2.7-6.09-2.87c-4.4-2.19-10.47-4.65-10.88-4.81-0.9-0.38-5.52-1.71-8.34-2.41-3.69-0.92-10.53-1.44-17.88-1.38-7.59 0.07-10.47 0.5-18.84 2.88-1.81 0.51-24.97 8.47-26.81 9.28-8.06 2.68-12.3 3.31-17.19 3.87-8.264 0.89-16.704 0.47-22.124-2.1-0.717-0.15-1.139-1.15-2.219-4.46-0.424-1.41-1.254-3.7-1.843-5.06-1.484-3.43-1.441-4.02 0.468-5 2.05-1.05 15.176-3.44 21.344-3.87 3.284-0.24 9.084-0.92 13.934-1.63 2.62-0.38 7.55-0.95 10.97-1.28 7.98-0.77 12.28-1.27 15.03-1.75 1.21-0.21 3.86-0.5 5.88-0.66 4.73-0.37 12-0.98 17.56-1.47 2.42-0.21 7.29-0.45 10.81-0.56 3.53-0.1 8.31-0.34 10.63-0.53 2.31-0.19 6.51-0.28 9.31-0.19s5.7 0.05 6.47-0.12zm-5.34 4.06c-0.66-0.1-1.36-0.08-2.1 0.06-1.75 0.34-2.85 1.37-3.22 2.97-0.51 2.27 0.87 4.22 3.94 5.6 1.33 0.59 2.73 0.54 3.16 0.28 2.78-1.14 3.63-2.09 2.56-5.07-0.8-2.21-2.37-3.55-4.34-3.84zm-1.13 1.09c1.2-0.07 2.46 0.35 3.31 1.19 1.6 2.6 1.7 4.36 0.22 5.13-1.29 0.67-1.55 0.69-3.59-0.03-1.09-0.39-1.87-1.01-2.5-1.97-0.88-1.33-0.92-1.45-0.38-2.5 0.6-1.15 1.74-1.74 2.94-1.82zm-71.91 4.32c-0.87 0-1.77 0.28-2.37 0.75-1.79 1.41-0.94 3.57 1.78 4.5 3.18 1.08 4.82-1.02 2.97-3.82-0.84-1.26-1.14-1.43-2.38-1.43zm0.32 1.28c0.76 0.24 1.67 2.13 1.31 2.72-0.62 1-3.5-0.13-3.5-1.38 0-0.81 1.33-1.62 2.19-1.34zm46.84 2.75c4.99 0 14.35 1.19 18 2.28 6.36 1.89 15.36 5.95 16.88 6.66 3.29 1.54 5.01 2.24 4.96 3.12-0.05 0.87-1.08 2.34-2.5 4.78-0.34-0.41-5.04-3.45-8.15-5.09-4.72-2.5-17.4-6.45-20.72-6.66-6.07-1.47-21.11 0.05-28.19 2.13-2.83 0.88-10.46 3.73-14.12 5.43-3.88 1.8-13.1 5.24-18.66 6.97-6.98 2.18-15.16 2.78-23.468 1.69-3.022-0.39-7.538-0.8-8.593-1.12-0.654-0.24-1.238-2.29-1.844-4.17-0.482-1.28 0.277-1.14 2.675-0.49 2.698 0.71 6.303 1.26 11.328 1.34 4.832 0 11.512-0.63 15.872-1.72 7.87-2.11 37.42-12.63 39.97-13.18 3.46-1.1 12.63-1.97 16.56-1.97zm-71.843 0.59c-2.002-0.34-4.346 0.21-6.156 1.85-1.293 1.16-1.437 1.48-1.437 3.03 0 1.43 0.202 1.98 1.187 3.09 0.655 0.74 2.532 1.56 3.338 1.84 1.799 0.64 4.591-0.03 6.381-1.37 1.29-1.22 1.43-2.15 0.81-4.81-0.47-2.03-2.12-3.28-4.123-3.63zm-2.283 1.33c4.668-1.01 6.366 3.83 5.315 5.8-0.208 0.38-0.881 0.94-1.469 1.25-1.41 0.73-3.849 0.66-5.688-0.16-1.094-0.49-1.655-1.05-2.156-2.16-0.716-3.19 2.191-4.86 3.998-4.73zm78.966 3.7c2.38 0.13 4.4 0.43 5.85 0.91 3.45 0.68 15.19 4.59 16.12 5.22 2.81 1.4 8.59 5.18 10 6-1.33 2.28-7.79 12.77-8.22 13.59-1.03 1.99-1.54 2.25-5.34 2.75-3.4 0.45-3.69 0.49-11.28 1.03-4.95 0.36-24.13 3.05-39.56 4.63-5.67 0.58-23.77 3.34-25.22 3.62-5.15 1.01-20.938 3.65-21.376 3.75-0.626 0.16-1.009-0.11-1.719-1.22-0.498-0.77-1.073-1.98-1.281-2.68-2.767-9.38-3.257-10.9-5.75-17.28-0.713-1.83-1.21-3.58-1.094-3.88 0.167-0.44 0.601-0.47 2.125-0.28 1.054 0.13 8.264 0.83 9.616 1.04 5.949 0.76 15.699-0.74 19.789-1.95 0.4-0.17 12.1-4.23 12.91-4.56 0.8-0.33 18.36-7.57 20.43-8.12 6.7-1.8 16.89-2.93 24-2.57zm-8.43 5.36c-1.14 0-2.94 1.05-2.94 2.17 0 1.1 1.46 3.54 4.63 3.21 1.17-0.32 1.79-1.33 1.28-2.99-0.45-1.47-1.91-2.39-2.97-2.39zm0 1.11c1.61 0 2.93 2.55 1.59 3.06-1.5 0.61-2.54-0.4-3.25-1.56-0.29-0.76 0.52-1.5 1.66-1.5zm24.09 8.78c-1.71 0-3.12 0.65-3.61 2.23-0.37 1.21-0.47 1.91 0.41 3.46 0.55 0.99 1.41 1.86 2.04 2.18 0.61 0.31 1.9 0.69 2.72 0.49 1.66-0.24 2.25-1.07 2.76-2.19 0.95-2.1-1.88-6.17-4.32-6.17zm-0.91 1.29c1.18-0.15 1.67-0.21 2.65 0.66 1.33 1.07 1.58 2.02 1.69 2.91-0.16 0.75 0.16 1.3-0.99 2.11-1.87 0.71-2.96 0.45-4.16-1-1.9-2.31-1.12-4.3 0.81-4.68zm-66.03 2.9c-1.85 1.97-1.04 5.99 1.53 7.56 1.75 1.06 3.32 0.94 4.85-0.4 1.6-1.41 1.7-2.97 0.37-5.66-2.57-3.62-5.51-2.82-6.75-1.5zm2.38-0.16c0.74 0.01 1.6 0.54 2.62 1.54 1.27 1.23 1.57 1.72 1.57 2.81-0.01 1.54-0.24 1.98-1.35 2.56-1.04 0.55-1.53 0.52-2.84-0.19-2.3-1.24-2.97-3.09-1.88-5.22 0.52-0.99 1.14-1.5 1.88-1.5zm28.06 1.78c-2.97 0.29-3.65 1.03-3.94 2.56-0.33 1.77 0.75 3.03 2.29 3.7 1.95 0.85 6.23 0.79 6.02-2.01 0-1.12-1.09-4.72-4.37-4.25zm0.25 0.94c3.27 0.32 3.4 4.03 2.41 4.41-0.95 0.36-3.59 0.23-4.38-0.22-1-0.57-1.27-1.03-1.28-2.22 0.1-1.65 1.53-1.85 3.25-1.97zm-53.468 3.16c-4.32-0.02-6.338 5.48-2.593 7.06 0.749 0.32 1.604 0.66 1.906 0.75 1.335 0.43 4.555-1.46 4.905-2.87 0.28-1.11-0.03-1.89-1.41-3.57-0.99-1.21-1.3-1.37-2.808-1.37zm130.53 0.69c0.49 0.48-0.67 3.19-2.62 6.09-2.44 3.63-8.73 14.75-9.31 15.75-2.77 4.55-3.23 5.31-4.32 5.74-1.34 0.38-14.79 6.74-21.56 8.73-0.91 0.27-19.82 6.35-27.41 6.97-9.28 0.76-14.01 0.71-22.06-0.22s-24.88-3.98-25.47-4.16c-1.19-0.36-6.21-1.12-15.06-2.28-6.957-0.91-15.862-0.55-18.999 0.43-1.007 0.31-8.225 1.94-13.75 4.88-2.568 1.37-4.183 2.27-4.627 1.9-0.345-0.28-2.881-8.91-4.809-16.73-1.07-3.95-2.284-3.78 12.499-6.17 2.983-0.39 18.721-3.16 20.031-3.46 2.337-0.55 17.035-2.84 20.155-3.44 5.41-1.04 22.53-3.92 29.69-4.47 2.52-0.2 30.41-3.6 40.65-4.59 6.66-0.65 46.81-5.13 46.97-4.97zm-131.31 0.78c1.153 0 3.309 1.18 3.629 2 0.36 0.96-0.19 2.24-1.16 2.69-1.22 0.55-2.277 0.51-3.75-0.13-1.022-0.44-1.188-0.7-1.188-1.81 0-1.58 1.055-2.75 2.469-2.75zm113.72 9.77c-2.68-0.6-4.4-0.62-5.66 0.54-1.8 1.43-2.51 2.97-2.03 4.34 0.48 1.36 2.04 2.79 3.78 3.44 1.51 0.56 3.44 0.49 5.13-0.15 1.07-0.41 2-2.29 2-4 0-1.52-0.54-3.36-3.22-4.17zm-3.22 1.01c3.2-0.16 5.34 1.54 5.34 3.2 0 0.34-0.37 1.64-0.84 2.08-1.47 1.38-4.79 0.91-6.94-0.97-1.63-1.43-0.18-4.41 2.44-4.31zm-50.36 3.22c-0.74-0.14-2.09-0.12-2.79 0.72-1.2 1.43-0.75 2.58 0.49 3.56 1.31 1.03 3.2 0.99 3.94-0.06 1.29-1.84 0.67-3.78-1.64-4.22zm-1.23 1.09c0.42-0.06 1.27-0.04 1.76 0.36 0.72 0.59 0.69 1.1 0.36 1.64-0.55 0.9-1.23 0.99-2.25 0.28-1.04-0.73-0.97-2.12 0.13-2.28zm-90.262 11.66c-0.015 1.68 0.733 2.66 2.536 3.31 1.837 0.65 5.882 0.67 4.567-3.59-0.369-1.52-1.962-2.46-3.094-2.75-3.273-0.24-3.993 1.4-4.009 3.03zm3.541-2.03c1.981 0.46 3.526 3.77 2.031 4.34-1.791 0.69-4.531-0.59-4.531-2.12 0-1.36 1.29-2.51 2.5-2.22zm38.311 0.09c-0.47 0-0.93 0.1-1.34 0.31-1.5 0.78-2.47 2.59-2.47 4.57 0 2.17 0.61 2.96 2.59 3.28 2.46 0.4 2.47 0.4 3.94-0.35 1.33-0.67 2.25-2.01 2.25-3.22 0-0.31-0.45-1.28-1-2.15-0.98-1.54-2.55-2.44-3.97-2.44zm66 1.67c-2.73-0.02-4.38 2.01-4.34 5.11 0.02 1.57 0.69 2.27 2.6 3.27 1.53 0.81 3.08 0.76 4.93 0.12 1.72-0.6 2.73-1.45 3-2.7 0.6-2.3-1.28-4.18-2.83-5.04-1-0.55-2.66-0.76-3.36-0.76zm-66.37 0.27c0.91 0 1.67 0.31 2.59 1.12 1.4 1.24 1.62 2.13 0.72 3.03-0.79 0.79-4.31 0.79-5.1 0-0.71-0.71-0.7-1.28-0.03-2.9 0.47-1.11 0.69-1.25 1.82-1.25zm66.25 1.12c0.68-0.03 1.49 0.19 2.59 0.66 2.4 1.03 3.14 2.79 1.81 4.37-1.25 1.5-5.33 1.19-6.56-0.5-0.79-1.07-0.6-2.67 0.41-3.68 0.54-0.55 1.07-0.82 1.75-0.85zm38.06 0.97c0.39 0.4-1.7 4.45-2.41 4.66-0.22 0.06-3.85 1.45-5.84 2.56-4.1 2.27-18.66 7.6-20.38 8.19-5.68 1.94-7.29 2.3-17.03 3.75-11.63 1.73-14.28 1.74-26.03 0.15-2.01-0.27-13.59-1.55-15-1.84-2.78-0.57-12.42-2.1-17.41-2.75-1.7-0.22-12.334-1.59-14.651-1.81-5.84-0.57-9.723-0.13-12.778 0.92-2.632 0.98-8.495 3.87-10.316 5.45-0.722 0.63-4.241 3.13-4.415 2.8-0.086-0.16-1.292-4.52-1.548-5.79 0.595-0.99 4.058-2.49 6.9-3.94 4.408-1.88 6.844-3.07 14.66-4.28 3.23-0.67 10.749-0.53 13.528 0.09 1.01 0.22 19.25 3.09 22.53 3.52 1.41 0.43 6.72 1.28 9.34 1.76 6.04 1.71 24.1 3.1 31.88 2.03 1.41-0.19 11.8-1.72 17.5-3.62 2.87-0.96 6.46-2.11 7.97-2.57 4.24-1.28 11.92-4.33 15.37-6.09 4.8-2.45 7.72-3.6 8.13-3.19zm-82.14 1.66c-0.59 0.12-1.14 0.5-1.59 0.98-0.69 0.58-0.87 1.71-0.11 2.76 1.34 1.5 4.61 0.63 4.83-1.5-0.14-1.22-1.34-2.6-3.13-2.24zm0.42 1.27c1.01-0.11 1.64 0.9 1.25 1.54-0.13 0.21-0.79 0.38-1.5 0.38-1.12 0-1.29-0.1-1.19-0.82 0.08-0.57 0.78-1.02 1.44-1.1zm77.19 4.54c0.49 0.23 0.48 1.17-0.53 3.05-1.74 3.71-8.82 15.92-10.85 20.17-1.15 2.42-9.61 18.04-10.03 18.53s-1.34 0.63-5 0.66c-2.46 0.01-12.48 0.17-22.25 0.37-20.13 0.41-36.34-0.06-46.91-0.19-30.989-0.35-40.239-0.58-40.589-1.03-0.361-0.46-4.582-22.11-4.687-23.12-0.179-1.71-0.109-1.9 1.031-3 2.644-2.27 9.834-7.11 15.66-8.38 2.836-0.76 5.866-0.68 16.905 0.38 1.91 0.18 16.28 2.27 17.59 2.56 7.33 1.63 26.69 4.15 29.97 4.38 7.23 0.47 12.31 0.05 18.5-1.22 5.44-0.74 12.76-2.13 16.72-3.5 9.55-3.31 8.06-2.74 13.37-4.94 2.02-0.84 5.11-2.26 6.85-3.16 2.41-1.23 3.76-1.79 4.25-1.56zm-1.97 10.56c0.26 0 1.14 0.5 1.97 1.1 1.75 1.26 13.48 12.94 14.03 13.97 0.4 0.74-2.31 4.82-2.97 6.28s-9.34 16.4-10.97 18.93c-0.62 1.2-1.47 2.62-3.09 3.32-0.83 0.35-28.87 15.36-38.03 20.09-3.18 1.64-6.02 3-6.29 3-0.26 0-1.41-0.66-2.56-1.47-1.15-0.8-2.6-1.73-3.25-2.06s-32.61-19.49-33.44-19.91c-1.39-0.78-6.29-0.18-18.09 2.75-3.63 0.91-21.067 5.09-24.593 5.82l-6.406 1.34-1.219-1.41c-0.667-0.76-2.114-2.52-3.25-3.93-1.135-1.42-18.058-21.27-18.062-21.88-0.003-0.38 10.75-9.98 14.781-14.75 0.856-1.01 0.978-1.04 1.531-0.5 0.358 0.35 4.114 21.07 4.719 21.59 0.914 0.8 0.039 0.78 36.689 1.25 9.07 0.12 18.77 0.35 21.59 0.5 6.04 0.34 29.09 0.23 42.13-0.18 5.03-0.16 10.73-0.27 12.62-0.28l3.44-0.04 0.81-1.46c5.81-10.68 9.71-18.97 11.5-22.04 0.69-1.18 1.76-3.04 2.35-4.15 1.69-3.19 3.54-5.88 4.06-5.88zm-17.19 2.94c-1.61 0-4.31 2.35-4.31 3.75 0 1.54 1.14 2.94 2.81 3.7 0.83 0.38 2.75 0.69 3.64 0.15 1.44-0.69 1.94-2.71 1.17-4.97-0.54-1.61-1.81-2.63-3.31-2.63zm0.06 1.63c1.7 0.37 3.14 3.24 1.53 4.9-0.7 0.71-1.73 0.4-3.21-0.82-1.05-0.87-1.12-1.26-1.04-1.96 0.14-1.15 1.78-2.43 2.72-2.12zm-86.54 2.02c-3.832 0.23-3.804 4.03-3.537 7.03 0.637 2.28 3.677 3.13 5.457 2.66 1.66-0.27 2.53-1.49 2.79-3.22 0.16-2.42-0.44-6.38-4.71-6.47zm-0.27 1.48c1.87 0 3.35 1.33 3.68 3.83 0.1 1.77-0.49 3.26-2.52 3.07-2.94-0.34-3.14-0.85-3.44-3.5-0.06-1.57 0.91-3.4 2.28-3.4zm59.19 3.31c-4.32 0.53-5.51 2.48-6.56 4.06-0.94 1.88-1.19 5-0.54 6.97 0.61 1.83 2.46 3.36 5.3 3.99 3.39 0.74 6.65-1.26 7.99-5.55 0.9-2.9 0.14-4.42-0.83-6.22-1.14-1.6-2.92-3.25-5.36-3.25zm-0.75 1.65c2.15-0.21 3.35 0.6 4.36 1.81 1.13 1.1 1.85 3.05 1.7 4.16-0.29 2.15-1.21 3.92-2.53 4.91-0.68 0.5-1.88 0.99-2.69 1.09-1.22 0.16-2.01 0.14-3.59-0.87-1.79-1.34-2.56-2.41-2.38-5.28 0.18-2.7 0.89-3.95 3.07-5.19 0.63-0.36 1.34-0.55 2.06-0.63zm57.36 2.63c-1.06-0.83-15.83 7.58-17.14 8.22-2.74 1.33-4.03 2.38-4.03 3.28 0 0.35 0.7 1.43 1.56 2.41 0.86 0.97 3.41 4.47 4.25 5.53 1.98 2.49 3 2.56 4.12 0.34 0.44-0.86 6.12-9.57 6.91-10.87 1.51-2.49 4.33-8.17 4.33-8.91zm-134.67 0.06c-1.266-0.13-2.141-0.1-3.406 0.88-1.704 1.29-2.245 1.84-2.567 3.45-0.339 2.09 0.025 3.66 1.866 5.05 1.647 1.11 3.07 1.49 4.919 1.49 3.11 0 4.126-0.64 4.813-2.93 0.448-3.58-0.579-4.91-1.915-6.38-1.436-1.13-2.443-1.43-3.71-1.56zm-1.219 1.25c1.133-0.18 2.346 0.1 3.469 0.88 1.727 1.19 2.438 2.54 2.438 4.47 0 1.13-0.559 2-1.313 2.59-1.309 1.03-4.57 0.69-6.219-0.31-2.467-1.51-2.996-3.64-1.406-5.72 0.832-1.09 1.899-1.73 3.031-1.91zm132.61 0.98c0.34-0.02 0.59 0.03 0.75 0.19 0.28 0.28-0.15 1.4-1.56 3.94-3.5 6.28-7.1 10.72-8.18 11.86-0.44 0.47-1.04 0.88-1.34 0.88-0.59 0-2.91-3.8-3.94-5.07-1.04-1.28-1.77-2.52-1.66-2.81 0.11-0.28 9.52-5.52 10.93-6.52 2.15-1.53 3.97-2.39 5-2.47zm-151.49 1.12c-0.292 0-1.719 1.19-3.187 2.65-2.015 1.94-4.029 2.96-4.223 3.82 0.323 0.94 1.181 1.49 1.879 2.21 1.159 1.18 2.831 3.52 3.688 4.5 0.856 0.98 1.668 1.81 1.812 1.82 1.058 0.06 1.39-4.49 0.844-11.63-0.199-2.6-0.406-3.37-0.813-3.37zm67.128 0.53c-1.35 0.25-2.81 2.16-2.81 3.25 0 2.17 1 3.48 3.71 4.31 0.51 0.15 1.51 0.15 2.03-0.09 1.09-0.5 2.17-1.96 2.17-3.7 0-1.01-0.21-1.99-1.79-3.02-1.52-0.98-2.3-0.94-3.31-0.75zm0.53 1.33c0.42 0 1.87 0.38 2.6 1.1 1.16 1.16 0.75 1.97 0.4 2.75-0.58 1.27-3.01 1.24-4.28-0.03-1.61-1.6-0.92-3.82 1.28-3.82zm-68.751 0.79c0.475 0.16 0.701 2.21 0.75 6.28 0.018 1.51-0.109 2.58-0.344 2.66-0.55 0.18-4.195-4.06-4.188-4.88 0.008-0.84 3.187-4.26 3.782-4.06zm25.156 14.85c-0.41-0.07-0.66 0.08-1.156 0.37-0.566 0.33-3.259 3.06-4.75 4.47-2.531 2.39-3.72 3.34-6.282 4.91-1.422 0.87-1.61 1.55-0.593 2.4 1.061 0.89 1.899 0.92 4.625 0.16 1.168-0.33 11.598-2.72 13.781-3.5s4.558-1.41 5.281-1.41c1.679 0 2.769-0.91 2.249-1.87-0.2-0.38-2.02-0.94-2.655-1.22-0.635-0.29-1.943-0.78-2.906-1.13-0.964-0.35-4.419-1.75-5.594-2.34-1.031-0.52-1.59-0.78-2-0.84zm-0.094 1.28c0.192-0.07 1.833 0.61 3.625 1.5 1.792 0.88 3.609 1.7 4.063 1.84 1.058 0.33 1.079 1.53 0.031 2.09-1.075 0.58-9.115 2.6-11.125 3.13-4.775 1.26-5.869 1.41-6.219 0.84-0.263-0.42 0.571-1.28 7.938-8.06 0.736-0.68 1.496-1.28 1.687-1.34zm57.159 10.03c-0.72 0.1-1 0.39-1 0.84 0 0.87 1.1 1.78 4.93 4.03 1.82 1.07 3.86 2.4 4.57 2.94 0.7 0.54 5.75 3.69 6.25 4.22 1.11 1.19 2.23 1.06 4.43-0.53 0.85-0.61 7.02-4.34 8.47-5.1 4.86-2.51 6.5-3.69 6.5-4.65 0-0.62-0.25-0.94-0.87-1.1-0.93-0.23-1.57-0.23-17.06-0.15-5.34 0.03-11.06-0.14-12.69-0.35-1.67-0.21-2.81-0.26-3.53-0.15zm16.99 2.06c11.69-0.06 13.17-0.08 13.17 0.58 0 0.48-8.75 5.99-11.63 7.61-0.85 0.47-1.77 0.85-2.03 0.84-0.27-0.01-1.27-0.67-2.25-1.47s-10.28-6.63-10.28-7.12c0-0.44 2.79-0.4 13.02-0.44z"/>
  </g>
  <metadata>
    <rdf:RDF>
      <cc:Work>
        <dc:format>image/svg+xml</dc:format>
        <dc:type rdf:resource="http://purl.org/dc/dcmitype/StillImage"/>
        <cc:license rdf:resource="http://creativecommons.org/licenses/publicdomain/"/>
        <dc:publisher>
          <cc:Agent rdf:about="http://openclipart.org/">
            <dc:title>Openclipart</dc:title>
          </cc:Agent>
        </dc:publisher>
        <dc:title>flat_cake_bw</dc:title>
        <dc:date>2008-05-26T11:44:50</dc:date>
        <dc:description>birthday, birthday, cake, cake, clip art, clipart, dessert, dessert, food, food, image, media, outline, outline, party, party, png, public domain, svg, </dc:description>
        <dc:source>http://openclipart.org/detail/16993/flat_cake_bw-by-jean_victor_balin</dc:source>
        <dc:creator>
          <cc:Agent>
            <dc:title>jean_victor_balin</dc:title>
          </cc:Agent>
        </dc:creator>
        <dc:subject>
          <rdf:Bag>
            <rdf:li>birthday</rdf:li>
            <rdf:li>cake</rdf:li>
            <rdf:li>clip art</rdf:li>
            <rdf:li>clipart</rdf:li>
            <rdf:li>dessert</rdf:li>
            <rdf:li>food</rdf:li>
            <rdf:li>image</rdf:li>
            <rdf:li>media</rdf:li>
            <rdf:li>outline</rdf:li>
            <rdf:li>party</rdf:li>
            <rdf:li>png</rdf:li>
            <rdf:li>public domain</rdf:li>
            <rdf:li>svg</rdf:li>
          </rdf:Bag>
        </dc:subject>
      </cc:Work>
      <cc:License rdf:about="http://creativecommons.org/licenses/publicdomain/">
        <cc:permits rdf:resource="http://creativecommons.org/ns#Reproduction"/>
        <cc:permits rdf:resource="http://creativecommons.org/ns#Distribution"/>
        <cc:permits rdf:resource="http://creativecommons.org/ns#DerivativeWorks"/>
      </cc:License>
    </rdf:RDF>
  </metadata>
</svg>
