<?xml version="1.0"?>
<svg xmlns:rdf="http://www.w3.org/1999/02/22-rdf-syntax-ns#" xmlns="http://www.w3.org/2000/svg" xmlns:cc="http://web.resource.org/cc/" xmlns:xlink="http://www.w3.org/1999/xlink" xmlns:dc="http://purl.org/dc/elements/1.1/" xmlns:svg="http://www.w3.org/2000/svg" id="Layer_1" style="enable-background:new 0 0 168.557 179.467" xml:space="preserve" viewBox="0 0 168.557 179.467" version="1.1" y="0px" x="0px">
<path clip-rule="evenodd" d="m60.671 6.353c0.305 0.543 0.998 0.697 1.587 0.953 0.186 1.031-0.215 1.479-0.315 2.225-0.633-0.529-0.406 0.028-1.272 0-0.264-0.795-0.871-1.248-0.954-2.225 0.827 0.191 1.145-0.128 0.954-0.953z" fill-rule="evenodd"/>
<path clip-rule="evenodd" d="m45.425 10.482c1.916-0.327 2.471 0.705 2.223 2.541-0.804 0.697-1.802-0.582-2.223 0-0.82-0.436-0.07-1.946 0-2.541z" fill-rule="evenodd"/>
<path clip-rule="evenodd" d="m38.12 11.118c1.078 0.246 2.629-0.161 2.223 2.223-1.202-0.46-0.61 0.872-1.59 0.636-0.106-1.059-0.92-1.41-0.633-2.859z" fill-rule="evenodd"/>
<path clip-rule="evenodd" d="m66.389 11.752c0.491 0.461 0.279 1.626 0.318 2.541-0.809 0.548-1.233-0.483-1.272 0.636-0.507-0.763-1.23-1.31-0.951-2.859 0.969 0.231 0.933-0.548 1.905-0.318z" fill-rule="evenodd"/>
<path clip-rule="evenodd" d="m97.517 13.023c0.116 0.347 1.391 1.329 1.271 0 0.618 0.546 0.686 1.646 0.634 2.859-0.907 0.447-1.732-0.986-1.587 0.318-0.674-0.969-1.274-2.182-0.318-3.177z" fill-rule="evenodd"/>
<path clip-rule="evenodd" d="m95.294 14.293c0.008 0.749-0.548 0.936-0.318 1.907-1.789 0.305-2.321-0.644-2.223-2.223 0.704-0.665 2.115-0.249 2.541 0.316z" fill-rule="evenodd"/>
<path clip-rule="evenodd" d="m56.861 13.977c0.568-0.042 0.669 0.388 1.269 0.316 0.054 1.432 0.155 2.908-1.269 2.859-0.267-0.795-0.871-1.248-0.954-2.223 0.853 0.219 0.613-0.656 0.954-0.952z" fill-rule="evenodd"/>
<path clip-rule="evenodd" d="m33.038 15.246c1.476 0.336 0.985 3.016-0.636 2.859-0.106-0.85-1.259-0.334-0.954-2.223 0.788 0.047 1.541 0.059 1.59-0.636z" fill-rule="evenodd"/>
<path clip-rule="evenodd" d="m51.461 15.246c1.026-0.392 0.24 1.029 1.269 0.636 0.191 1.778-0.763 2.413-2.541 2.223-0.173-1.267-0.173-0.956 0-2.223 0.563-0.072 1.59 0.321 1.272-0.636z" fill-rule="evenodd"/>
<path clip-rule="evenodd" d="m42.248 16.2c0.424 0.316 0.623 0.858 1.271 0.953-0.002 0.53 0 1.059 0 1.588-0.54 0.116-0.6-0.249-0.636-0.636-0.31 0.009-0.248 0.389-0.318 0.636-0.297-0.18-0.481-0.883-0.636-0.318-0.643-0.259 0.202-1.675 0.319-2.223z" fill-rule="evenodd"/>
<path clip-rule="evenodd" d="m69.248 17.787c0.008 0.75-0.548 0.936-0.318 1.907-1.14 0.116-1.164 0.853-2.223 0.318-1.236-1.966 1.052-3.885 2.541-2.225z" fill-rule="evenodd"/>
<path clip-rule="evenodd" d="m83.54 17.153h2.542c0.14 1.092-0.124 1.779-0.315 2.541-0.789 0.412-1.543-0.708-1.59 0-0.471-0.587-0.608-1.509-0.637-2.541z" fill-rule="evenodd"/>
<path clip-rule="evenodd" d="m98.789 18.423c1.792-0.479 2.368 1.451 1.588 2.541-0.911-0.055-1.756-0.643-1.591-2.541z" fill-rule="evenodd"/>
<path clip-rule="evenodd" d="m27.32 19.694c1.703 0.213 1.065 1.746 0.951 3.177-0.282-0.195-0.569-0.384-0.633 0-0.31-0.009-0.248-0.389-0.318-0.636-0.179-0.718-0.497 0.385-0.954-0.317-0.23-0.972 0.326-1.158 0.318-1.906 0.256 0.061 0.315 0.318 0.636 0.318v-0.636z" fill-rule="evenodd"/>
<path clip-rule="evenodd" d="m88.94 20.012h1.59c0.267 0.791 0.416 1.702 0.318 2.859-0.812 0.544-1.111-0.364-1.59 0.316-0.949-0.437-0.662-2.299-0.318-3.175z" fill-rule="evenodd"/>
<path clip-rule="evenodd" d="m94.976 20.646c0.383 0.359 0.576 0.908 1.59 0.636 0.364 0.889 0.364 1.652 0 2.541-1.689 0.296-2.21-1.277-1.59-3.177z" fill-rule="evenodd"/>
<path clip-rule="evenodd" d="m72.107 21.918c0.305 0.542 0.998 0.695 1.587 0.953 0.173 0.461-0.37 1.642 0.318 1.588-1.409 0.971-3.353-0.239-2.859-2.224 0.297 0.195 1.171 0.739 0.954-0.317z" fill-rule="evenodd"/>
<path clip-rule="evenodd" d="m49.235 22.871c0.23 0.971-0.323 1.157-0.315 1.905-3.549 0.531-2.061-4.161 0.315-1.905z" fill-rule="evenodd"/>
<path clip-rule="evenodd" d="m40.343 22.871c0.851 0.291 1.38 1.954 0.636 2.857-1.864 0.187-1.92-0.943-1.589-2.223 0.637 0.109 0.994-0.065 0.953-0.634z" fill-rule="evenodd"/>
<path clip-rule="evenodd" d="m54.002 22.871c1.212-0.154 2.026 0.089 2.541 0.635 0.17 1.23-0.809 1.308-0.954 2.223-1.14-0.342-1.892-1.073-1.587-2.858z" fill-rule="evenodd"/>
<path clip-rule="evenodd" d="m60.035 22.871h2.223c0.346 1.826-0.538 2.426-1.27 3.176-0.654 0.276-0.633-1.616-0.954-0.635-0.818-0.437-0.069-1.947 0.001-2.541z" fill-rule="evenodd"/>
<path clip-rule="evenodd" d="m110.54 23.823c0.132 0.765-0.579 0.69-0.318 1.588h-2.223c0.052-0.37-0.07-0.565-0.318-0.636-0.01-2.296 1.88-1.912 2.86-0.952z" fill-rule="evenodd"/>
<path clip-rule="evenodd" d="m32.402 23.505c0.972-0.23 0.933 0.548 1.905 0.318 0.496 1.003-0.176 1.395-0.318 2.541-0.747-0.977-0.188-0.126-1.269 0 0.116-0.541-0.248-0.6-0.636-0.636-0.184-1.03 0.217-1.477 0.318-2.223z" fill-rule="evenodd"/>
<path clip-rule="evenodd" d="m24.779 24.459c0.101 0.745 0.501 1.192 0.318 2.223-0.858 1.18-1.533-0.507-1.59 0.635-0.68-0.607-0.695-1.656-0.318-2.541 0.899 0.262 0.825-0.447 1.59-0.317z" fill-rule="evenodd"/>
<path clip-rule="evenodd" d="m89.258 25.412c0.424 0.528 1.799 0.106 2.223 0.635 0.246 1.197-0.385 1.519-0.315 2.541-0.749 0.008-0.936-0.547-1.907-0.317-0.019-1.042-0.902-1.215-0.634-2.542 0.39 0.354 0.651 0.276 0.633-0.317z" fill-rule="evenodd"/>
<path clip-rule="evenodd" d="m85.13 26.364c0.313 2.773-2.923 2.905-2.859 0.318 0.535-0.595 1.74-1.464 2.859-0.318z" fill-rule="evenodd"/>
<path clip-rule="evenodd" d="m67.025 27.317c0.721 0.23 1.621 0.283 2.223 0.636 0.173 0.461-0.373 1.642 0.318 1.588-0.225 1.114-1.763 0.138-2.223 0.635-0.726-0.696-1.179-2.301-0.318-2.859z" fill-rule="evenodd"/>
<path clip-rule="evenodd" d="m112.45 27.317c0.766-0.129 0.69 0.58 1.588 0.318 0.19 0.761 0.457 1.449 0.317 2.541-1.95 0.09-2.31-1.439-1.91-2.859z" fill-rule="evenodd"/>
<path clip-rule="evenodd" d="m105.14 30.176c-1.267 0.102-2.347 0.018-2.858-0.635-0.54-3.148 4.29-1.892 2.86 0.635z" fill-rule="evenodd"/>
<path clip-rule="evenodd" d="m74.33 28.271c2.75 2.041-1.624 5.146-1.905 1.271 0.16-0.899 1.802-0.317 1.905-1.271z" fill-rule="evenodd"/>
<path clip-rule="evenodd" d="m109.59 28.271c-0.651 0.153 1.284 0.463 0.633 0 1.378 0.981 1.347 2.606 0 3.812-0.45-1.33-1.79-2.622-0.63-3.812z" fill-rule="evenodd"/>
<path clip-rule="evenodd" d="m27.32 28.587c1.916-0.327 2.471 0.704 2.223 2.541-0.833 0.372-1.368-0.98-1.272 0.318-0.843-0.426-1.143-1.398-0.951-2.859z" fill-rule="evenodd"/>
<path clip-rule="evenodd" d="m93.071 28.587c0.375 0.366 1.122 0.36 1.905 0.318 0.364 0.891 0.364 1.652 0 2.541-0.978-0.222-0.61-0.222-1.587 0-0.013-1.045-0.538-1.58-0.318-2.859z" fill-rule="evenodd"/>
<path clip-rule="evenodd" d="m20.012 29.223c0.762 0.404 1.295 1.037 1.271 2.223-0.119 0.729-1.271 0.424-1.587 0.954-0.429-0.312-0.636-0.848-0.954-1.271-0.136-1.195 0.993-1.124 1.27-1.906z" fill-rule="evenodd"/>
<path clip-rule="evenodd" d="m58.13 29.223c0.819 0.027 0.333 1.36 1.587 0.953 0.232 0.972-0.548 0.935-0.315 1.906-1.138 0.917-1.755 0.207-1.908 0.953-0.589-0.574-1.164-1.166-0.951-2.541 0.37-0.583 2.07 0.167 1.587-1.271z" fill-rule="evenodd"/>
<path clip-rule="evenodd" d="m51.143 29.859h1.587c0.328 0.835 0.38 1.949 0.318 3.176-1.101-0.036-2.438-1.506-1.905-3.176z" fill-rule="evenodd"/>
<path clip-rule="evenodd" d="m81.953 30.176c1.437 0.354 1.812 1.644 1.272 3.177-0.993-0.278-1.947-0.597-2.226-1.588-0.078-0.928 0.6-1.097 0.954-1.589z" fill-rule="evenodd"/>
<path clip-rule="evenodd" d="m78.14 31.128c0.621 1.022 0.899 2.248 0 3.177-0.837 0.379-0.817-1.528-0.951 0-0.889-0.169-0.587-1.53-0.954-2.223 0.758-0.196 0.522-1.384 1.905-0.954z" fill-rule="evenodd"/>
<path clip-rule="evenodd" d="m105.78 32.4c1.065 0.858 1.949 2.061 1.272 3.812-0.339-0.025-0.228-0.702-0.637-0.636-0.08 0.013-0.506 0.544-0.317 0.636-0.474-0.229-0.181-1.146-1.271-1.271-0.16-1.326 0.73-1.608 0.96-2.541z" fill-rule="evenodd"/>
<path clip-rule="evenodd" d="m87.671 33.035h2.223c0.804 1.334-0.119 1.988-0.636 2.859-0.651-0.83-1.988-0.977-1.587-2.859z" fill-rule="evenodd"/>
<path clip-rule="evenodd" d="m60.989 33.669c1.52-0.038 1.905 1.06 1.905 2.542-1.122 0.539-1.117-0.002-2.541 0v-2.224c0.39 0.356 0.654 0.277 0.636-0.318z" fill-rule="evenodd"/>
<path clip-rule="evenodd" d="m24.143 33.987c1.735-0.253 2.477 0.487 2.223 2.224h-1.905c-0.101-0.745-0.502-1.192-0.318-2.224z" fill-rule="evenodd"/>
<path clip-rule="evenodd" d="m115.94 34.305v2.541c-1.742 0.472-2.505-1.414-2.223-2.541 0.53-0.561 1.06 0.282 2.22 0z" fill-rule="evenodd"/>
<path clip-rule="evenodd" d="m45.743 34.305c1.404 0.11 1.937 1.582 1.27 2.859-0.794-0.04-0.993-0.606-1.27 0.318-0.442-0.513-0.902-1.005-1.271-1.588-0.136-1.087 0.95-0.956 1.271-1.589z" fill-rule="evenodd"/>
<path clip-rule="evenodd" d="m73.058 34.305c1.758 0.16 2.378 2.301 0.954 3.177-1.026-0.352-1.742-1.011-1.587-2.541 0.54 0.117 0.597-0.248 0.633-0.636z" fill-rule="evenodd"/>
<path clip-rule="evenodd" d="m35.894 34.623c0.271-0.058 0.3 0.124 0.318 0.318 0.039 0.067 1.354 0.782 1.272-0.318 0.954 0.764 1.375 1.657 0.951 2.859 0.287-0.815-1.789-0.155-0.633 0.318-0.545 0.065-0.825-0.543-0.954 0-0.923-0.592-1.693-1.825-0.954-3.177z" fill-rule="evenodd"/>
<path clip-rule="evenodd" d="m80.048 34.941c0.375 0.366 1.122 0.359 1.905 0.317 0.364 0.891 0.364 1.652 0 2.542-1.042-0.333-1.401 0.203-2.223-0.636-0.184-1.031 0.217-1.477 0.318-2.223z" fill-rule="evenodd"/>
<path clip-rule="evenodd" d="m111.81 37.8c-1.008-0.371-1.849-0.906-1.907-2.225 1.6-1.791 3.64 0.856 1.91 2.225z" fill-rule="evenodd"/>
<path clip-rule="evenodd" d="m96.881 35.894c0.098 0.961 0.984 1.135 0.636 2.541-1.53 0.503-2.513-0.396-2.541-2.223 0.375-0.366 1.122-0.361 1.905-0.318z" fill-rule="evenodd"/>
<path clip-rule="evenodd" d="m51.776 36.528c0.615 0.374 1.611-0.291 2.226 0.636 0.103 1.164-0.354 1.764-0.636 2.541-0.652-0.937-1.954-1.223-1.59-3.177z" fill-rule="evenodd"/>
<path clip-rule="evenodd" d="m86.082 37.8c0.801 0.468 1.312 1.228 1.59 2.223-0.311 0.008-0.249 0.388-0.318 0.635-1.158 0.207-1.69-0.213-2.223-0.635-0.23-0.972 0.548-0.934 0.318-1.906 0.389 0.355 0.65 0.276 0.633-0.317z" fill-rule="evenodd"/>
<path clip-rule="evenodd" d="m101.65 37.8c1.53-0.155 1.838 0.914 1.905 2.223-0.978-0.236-0.61 0.871-1.59 0.635-0.38-0.962-0.97-1.702-0.32-2.858z" fill-rule="evenodd"/>
<path clip-rule="evenodd" d="m105.78 38.117c-0.054-0.689 1.127-0.144 1.588-0.316 0.485 0.655 1.476 1.861 0.636 2.857-0.693-0.771-0.978 0.147-2.224-0.953-0.2-0.566 0.92-1.319-0.01-1.588z" fill-rule="evenodd"/>
<path clip-rule="evenodd" d="m119.44 37.8c1.732 0.01 3.095 1.191 2.224 2.857-1.316 0.364-1.238-0.668-2.224-0.635v-2.222z" fill-rule="evenodd"/>
<path clip-rule="evenodd" d="m15.566 40.023c0.186 1.14-0.37 1.537-0.636 2.223-0.406-0.44-1.5-0.194-1.905-0.636v-1.587c1.005 0.702 1.347-1.036 2.541 0z" fill-rule="evenodd"/>
<path clip-rule="evenodd" d="m115.62 39.705c1.53 0.206 3.138 2.123 1.59 3.494-1.76 0.015-2.3-1.986-1.59-3.494z" fill-rule="evenodd"/>
<path clip-rule="evenodd" d="m91.166 40.023h1.588c0.607 1.208 0.55 1.824 0 2.859-0.742-0.105-1.313-0.383-1.905-0.636-0.187-1.031 0.214-1.477 0.317-2.223z" fill-rule="evenodd"/>
<path clip-rule="evenodd" d="m74.33 40.976c0.232 1.504-0.993 1.55-0.954 2.859-0.3-0.651-0.781-1.124-1.587-1.271v-1.906c1.37 0.004 1.781-0.583 2.541 0.318z" fill-rule="evenodd"/>
<path clip-rule="evenodd" d="m57.812 40.658c0.902 1.174 1.003-0.461 2.859 0 0.287 1.246 0.388 1.981-0.318 2.859-0.465 0.005-1.005-1.339-0.951 0-0.305-0.542-1-0.697-1.59-0.953v-1.906z" fill-rule="evenodd"/>
<path clip-rule="evenodd" d="m110.86 40.976c1.952 0.432 2.748 1.252 2.224 3.494-0.978-0.222-0.61-0.222-1.587 0-0.51-0.997-1.37-2.146-0.63-3.494z" fill-rule="evenodd"/>
<path clip-rule="evenodd" d="m45.425 41.293c2.011 0.422 1.393 1.925 0.636 3.176-0.915-1.205-0.819 0.398-1.908-0.635v-2.224c0.504-0.026 1.212 0.154 1.272-0.317z" fill-rule="evenodd"/>
<path clip-rule="evenodd" d="m76.553 41.293c0.604 0.596 0.574-0.188 1.587 0 0.569 0.766 0.887 1.78 0.318 2.859-0.928 0.083-0.974-0.719-1.905-0.636v-2.223z" fill-rule="evenodd"/>
<path clip-rule="evenodd" d="m98.471 44.469c-0.543 0.067-0.825-0.542-0.954 0-0.771-0.498-1.189-1.351-1.27-2.541 1.562-1.586 3.127 0.685 2.224 2.541z" fill-rule="evenodd"/>
<path clip-rule="evenodd" d="m120.39 42.564c1.274-0.112 2.324 0.005 2.541 0.953-0.021 1.369-1.274 1.689-2.226 1.271-0.43-0.411-0.31-1.38-0.31-2.224z" fill-rule="evenodd"/>
<path clip-rule="evenodd" d="m32.402 42.882c0.269-0.06 0.3 0.124 0.318 0.316 0.039 0.702 1.347 0.136 1.905 0.318-0.003 0.844 0.119 1.815-0.318 2.225h-1.587c-0.372-0.963-0.965-1.703-0.318-2.859z" fill-rule="evenodd"/>
<path clip-rule="evenodd" d="m106.41 43.199c1.686-0.098 2.541 0.636 2.541 2.225-0.54-0.118-0.6 0.247-0.636 0.634-1.48-0.552-1.94-1.471-1.9-2.859z" fill-rule="evenodd"/>
<path clip-rule="evenodd" d="m50.507 43.517c0.703-0.174 0.453 0.606 0.954 0.636 0.39 1.363-1.238 2.338-0.318 3.175-1.147 0.313-2.859-0.674-2.541-2.541 0.964-0.794 1.53-0.015 1.905-1.27z" fill-rule="evenodd"/>
<path clip-rule="evenodd" d="m13.979 44.469c0.031 0.985-0.39 1.518-0.636 2.225h-1.905c-0.292-0.557-0.111-1.586-0.636-1.907 0.775-0.881 2.199-1.308 3.177-0.318z" fill-rule="evenodd"/>
<path clip-rule="evenodd" d="m24.779 43.834c0.646 0.746 0.954 2.176 0 2.859-0.377-0.366-1.125-0.361-1.908-0.318-0.548-0.192 0.026-1.507-0.633-1.588 0.767-0.395 1.103-1.225 2.541-0.953z" fill-rule="evenodd"/>
<path clip-rule="evenodd" d="m64.802 44.153c1.158-0.207 1.69 0.213 2.223 0.634-0.101 1.276-0.574 2.179-1.59 2.541 0.016-1.461-1.349-1.894-0.633-3.175z" fill-rule="evenodd"/>
<path clip-rule="evenodd" d="m85.766 44.153c1.267-0.314 0.956 0.948 2.223 0.634 0.388 1.346 0.021 1.615-0.636 2.541-0.297-0.179-0.48-0.882-0.636-0.318-0.638-0.632-1.086-1.454-0.951-2.857z" fill-rule="evenodd"/>
<path clip-rule="evenodd" d="m103.24 44.153c1.094 1.355 0.885 2.166-0.317 3.175-0.706-0.778-1.833-1.132-1.588-2.859 0.97 0.232 0.93-0.548 1.91-0.316z" fill-rule="evenodd"/>
<path clip-rule="evenodd" d="m91.481 44.787c0.603 0.988 2.74 0.437 2.226 2.541-1.864 1.012-2.973-0.853-2.226-2.541z" fill-rule="evenodd"/>
<path clip-rule="evenodd" d="m118.16 44.787v2.541h-2.224c-0.84-1.564-0.03-3.13 2.22-2.541z" fill-rule="evenodd"/>
<path clip-rule="evenodd" d="m98.789 46.058c0.659 1.216 1.722 2.081 0.634 3.494-1.244 0.287-3.829-3.291-0.634-3.494z" fill-rule="evenodd"/>
<path clip-rule="evenodd" d="m70.835 46.375c0.812 1.647 0.879 0.079 2.541 0.318 0.323 1.646 0.427 2.894-1.587 2.857-0.483-1.546-1.062-1.035-0.954-3.175z" fill-rule="evenodd"/>
<path clip-rule="evenodd" d="m77.507 46.375c0.53 0.846 1.184 1.568 0.951 3.176-1.794 0.439-3.063-2.14-0.951-3.176z" fill-rule="evenodd"/>
<path clip-rule="evenodd" d="m80.999 46.694h1.908c0.455 0.941 0.97 2.015 0 2.857-1.101 0.619-2.158-1.113-1.908-2.857z" fill-rule="evenodd"/>
<path clip-rule="evenodd" d="m111.81 46.694c0.269-0.059 0.3 0.124 0.318 0.316 0.11 0.446 0.558 0.028 0.633-0.316 1.378 0.832 1.419 2.414 0.318 3.493-0.96-0.628-1.52-1.653-1.27-3.493z" fill-rule="evenodd"/>
<path clip-rule="evenodd" d="m120.7 46.694c2.029-0.333 2.874 0.513 2.541 2.541-0.985-0.417-0.905 0.085-2.224 0-0.38-0.913-0.66-1.687-0.32-2.541z" fill-rule="evenodd"/>
<path clip-rule="evenodd" d="m109.27 47.646c0.052 0.9 0.582 1.324 0.634 2.223-1.106 0.949-2.156-0.195-3.175-0.318 0.27-1.221 0.68-2.287 2.55-1.905z" fill-rule="evenodd"/>
<path clip-rule="evenodd" d="m10.484 47.964c0.499 0.136 0.271 0.999 1.271 0.634 0.38 3.026-1.597 1.817-2.541 2.859-0.504-0.663-0.659-1.671-0.636-2.859 0.843-0.003 1.87 0.178 1.906-0.634z" fill-rule="evenodd"/>
<path clip-rule="evenodd" d="m61.625 48.599c1.114 0.749 0.853 1.642 0.633 3.177-1.246-0.07-1.869-0.34-1.905-2.225 0.421-0.318 1.181-0.3 1.272-0.952z" fill-rule="evenodd"/>
<path clip-rule="evenodd" d="m42.884 49.235c1.362 0.614 1.737 1.383 1.269 3.176-1.279-0.045-2.117-0.352-2.223-2.224 0.693 0.059 1.011-0.26 0.954-0.952z" fill-rule="evenodd"/>
<path clip-rule="evenodd" d="m126.42 49.235c0.896 0.587 1.717 1.247 1.59 2.859h-1.908c-0.5-1.023-0.26-2.106 0.32-2.859z" fill-rule="evenodd"/>
<path clip-rule="evenodd" d="m117.21 49.551c1.352 0.196 2.169 2.251 0.951 3.177-1.109-0.371-2.288-0.676-1.905-2.541 0.64 0.109 0.99-0.064 0.95-0.636z" fill-rule="evenodd"/>
<path clip-rule="evenodd" d="m101.65 50.187h2.223c0.559 1.091 0.337 2.446-0.636 2.859-1.12-0.36-1.87-1.09-1.58-2.859z" fill-rule="evenodd"/>
<path clip-rule="evenodd" d="m87.035 50.505h1.59c0.194 0.969 1.425 0.903 0.952 2.541-0.375 0.735-2.012-0.67-2.224 0-1-0.539-0.395-1.477-0.318-2.541z" fill-rule="evenodd"/>
<path clip-rule="evenodd" d="m121.02 50.505h1.59c0.496 1.085 0.739 1.479 0.318 2.859-0.378-0.366-1.125-0.359-1.908-0.318-0.2-0.726-0.63-1.915 0-2.541z" fill-rule="evenodd"/>
<path clip-rule="evenodd" d="m92.118 51.14c1.031 0.281 2.21 1.61 1.271 2.858-0.771-0.187-1.406-0.188-1.908-1.271-0.049-0.789 0.499-0.982 0.637-1.587z" fill-rule="evenodd"/>
<path clip-rule="evenodd" d="m97.517 51.776c0.041-0.702 1.347-0.136 1.905-0.318 0.341 0.296 0.101 1.173 0.954 0.953-0.311 0.75-0.104 2.015-1.27 1.906-1.318-0.062-0.885-1.872-1.593-2.541z" fill-rule="evenodd"/>
<path clip-rule="evenodd" d="m109.9 52.094c0.152 1.208-0.135 1.983-0.952 2.223-2.47-0.286-1.49-3.752 0.95-2.223z" fill-rule="evenodd"/>
<path clip-rule="evenodd" d="m76.235 52.094c0.872 0.401 2.229 0.313 2.859 0.953 0.036 1.201-0.621 1.707-1.587 1.905-0.682-0.695-1.631-1.124-1.272-2.858z" fill-rule="evenodd"/>
<path clip-rule="evenodd" d="m8.261 52.411c0.993 1.139 2.032 2.19 0.954 3.812-1.23-0.147-2.047-0.707-2.226-1.906 0.266-0.793 1.45-0.669 1.272-1.906z" fill-rule="evenodd"/>
<path clip-rule="evenodd" d="m112.13 52.411h1.269c0.135 0.607 0.116 1.367 0.954 1.271 0.326 1.278-0.496 1.41-0.954 1.905-0.325 0.037-0.641-1.37-0.951-0.318-0.92-0.418-0.66-2.014-0.32-2.858z" fill-rule="evenodd"/>
<path clip-rule="evenodd" d="m71.153 53.046c0.789 0.53 1.228 0.721 1.905 1.905-0.832 2.459-2.991 0.299-1.905-1.905z" fill-rule="evenodd"/>
<path clip-rule="evenodd" d="m126.42 53.046c1.554 0.345 2.272 3.43 0.318 3.812-0.36-1.372-1.55-2.557-0.32-3.812z" fill-rule="evenodd"/>
<path clip-rule="evenodd" d="m117.53 54.635c1.688 0.028 1.993 2.18 0.951 3.175-0.292-0.765-1.612-0.504-1.904-1.271-0.17-1.122 0.51-1.391 0.95-1.904z" fill-rule="evenodd"/>
<path clip-rule="evenodd" d="m120.7 54.952h2.226c0.827 0.867 0.814 2.667-0.318 3.177-1.1-0.595-2.15-1.238-1.91-3.177z" fill-rule="evenodd"/>
<path clip-rule="evenodd" d="m87.353 55.905h1.905c0.391 1.348 0.116 1.71 0 3.175-0.931-0.084-1.179-0.438-1.587 0-0.686-0.267-0.27-1.637-0.954-1.905 0.137-0.498 1-0.271 0.636-1.27z" fill-rule="evenodd"/>
<path clip-rule="evenodd" d="m91.799 55.905c1.099-0.628 1.398 1.082 1.59 0.318 1.562 1.718-0.827 3.331-1.908 1.905 0.006-0.844-0.118-1.815 0.318-2.223z" fill-rule="evenodd"/>
<path clip-rule="evenodd" d="m97.835 55.905c0.617 0.731 0.989 0.446 2.223 0.953 0.188 3.05-2.011 2.299-2.858 0.952 0.103-0.742 0.38-1.311 0.633-1.905z" fill-rule="evenodd"/>
<path clip-rule="evenodd" d="m103.24 55.905c0.432 0.942 0.46 2.302-0.317 2.859-0.99-0.637-1.042-0.372-1.905-1.271 0.08-1.187 0.68-1.853 2.22-1.588z" fill-rule="evenodd"/>
<path clip-rule="evenodd" d="m6.355 57.81c2.239-0.108 2.412 1.811 1.587 3.177-0.724 0.436-1.194-0.819-1.272 0-0.632-0.507-0.935-2.397-0.315-3.177z" fill-rule="evenodd"/>
<path clip-rule="evenodd" d="m125.15 58.446h1.905c0.411 0.921 0.411 2.254 0 3.177-0.543 0.066-0.822-0.542-0.954 0-1.18-0.202-0.97-1.785-0.96-3.177z" fill-rule="evenodd"/>
<path clip-rule="evenodd" d="m75.917 58.764h1.908c-0.238 0.977 0.871 0.61 0.633 1.587-0.294 0.232-0.48 0.578-0.633 0.954-1.582 0.097-2.063-0.902-1.908-2.541z" fill-rule="evenodd"/>
<path clip-rule="evenodd" d="m15.566 60.035c0.631 0.624 0.202 1.813 0 2.541h-1.905c-0.176-0.566-0.163-1.319-0.636-1.588 0.907-0.039 0.987-0.881 2.541-0.953z" fill-rule="evenodd"/>
<path clip-rule="evenodd" d="m23.825 66.705c-0.592 0.304-1.062-0.951-1.271 0-0.69-0.685-1.226-1.526-1.27-2.859 1.967-0.843 2.872 0.533 2.541 2.859z" fill-rule="evenodd"/>
<path clip-rule="evenodd" d="m7.625 66.705c-1.267 0.173-0.957 0.173-2.223 0-1.275-2.931 3.037-3.983 2.223 0z" fill-rule="evenodd"/>
<path clip-rule="evenodd" d="m108 64.799c1.352 0.553 0.956 2.856 1.271 4.447-2.04 0.392-2.84-2.926-1.27-4.447z" fill-rule="evenodd"/>
<path clip-rule="evenodd" d="m13.661 65.751v2.224c-0.915 0.177-0.551 0.23-1.59 0.635-0.214-0.738-0.571-1.334-1.587-1.271v-1.588c1.315-0.019 1.515-0.889 3.177 0z" fill-rule="evenodd"/>
<path clip-rule="evenodd" d="m97.517 65.434c0.618 0.52 1.634 0.693 2.224 1.271 1.077 1.057 1.24 2.979 2.541 3.812 0.126 3.897 2.866 5.182 5.082 6.989 1.225-1.033-0.034-3.643 1.271-5.083 2.309 1.662 0.354 4.866 0 7.306h-2.541c-0.931-1.189-1.967-2.268-3.495-2.858-1.292-3.79-2.921-7.245-5.399-9.848-0.131-0.766 0.58-0.691 0.316-1.589z" fill-rule="evenodd"/>
<path clip-rule="evenodd" d="m16.202 66.705c0.271-0.656 2.21-0.336 2.541 0-0.039 0.916 0.173 2.079-0.318 2.541-1.468-0.388-2.205-1.531-2.223-2.541z" fill-rule="evenodd"/>
<path clip-rule="evenodd" d="m56.225 70.199c-0.952-0.955-1.913-0.579-1.908-2.859 1.685-1.632 2.789 0.991 1.908 2.859z" fill-rule="evenodd"/>
<path clip-rule="evenodd" d="m63.212 68.292h1.272c0.439 0.893 0.84 1.828 0.318 2.859-2.037 0.449-2.198-1.586-1.59-2.859z" fill-rule="evenodd"/>
<path clip-rule="evenodd" d="m5.72 70.199h0.951c0.69 1.042 0.721 2.445 0.318 3.812-0.308-0.009-0.246-0.389-0.318-0.636-0.222-0.3-1.489 0.206-1.905-0.635-0.416-1.581 0.98-1.351 0.954-2.541z" fill-rule="evenodd"/>
<path clip-rule="evenodd" d="m12.707 72.105h2.223c0.442 0.512 0.269 1.637 0.954 1.905-0.969 1.908-3.766 0.548-3.177-1.905z" fill-rule="evenodd"/>
<path clip-rule="evenodd" d="m22.238 72.74c0.269-0.058 0.3 0.124 0.315 0.318 0.137 0.709 1.566 0.128 2.226 0.316 0.32 1.806-0.414 2.553-0.954 3.495-1.934 0.026-1.626-2.184-1.587-4.129z" fill-rule="evenodd"/>
<path clip-rule="evenodd" d="m49.235 73.375c0.383 0.359 0.577 0.907 1.59 0.636-0.002 0.844 0.119 1.815-0.318 2.223-0.631-0.529-0.403 0.03-1.272 0-0.39-0.898-0.39-1.96 0-2.859z" fill-rule="evenodd"/>
<path clip-rule="evenodd" d="m54.953 73.375h2.223c0.22 1.278-0.303 1.814-0.315 2.859-1.065-0.526-2.208-0.971-1.908-2.859z" fill-rule="evenodd"/>
<path clip-rule="evenodd" d="m125.79 73.692c0.104 0.746 0.504 1.193 0.317 2.224-0.739 0.475-1.367-0.107-1.587 0.317-0.636-0.422-0.708-1.409-0.954-2.223 0.4-0.436 1.37-0.314 2.22-0.318z" fill-rule="evenodd"/>
<path clip-rule="evenodd" d="m61.307 75.281c0.323 0.207 0.328 0.73 0.951 0.636 0.044 1.961-0.628 2.182-1.905 2.224 0.07-1.022-0.561-1.345-0.318-2.541 0.236 0.224 1.556 0.79 1.272-0.319z" fill-rule="evenodd"/>
<path clip-rule="evenodd" d="m134.04 77.187c0.238 0.979-1.094 0.387-0.633 1.587-0.285-0.195-0.569-0.382-0.637 0-0.612-0.129-0.25-1.23-1.271-0.953v-1.588c1.07-0.535 1.92 0.194 2.54 0.954z" fill-rule="evenodd"/>
<path clip-rule="evenodd" d="m15.248 78.458c1.171 0.419 1.605 1.572 1.589 3.176-1.833 0.032-3.112-0.488-2.859-2.541 0.562-0.073 1.59 0.32 1.27-0.635z" fill-rule="evenodd"/>
<path clip-rule="evenodd" d="m54.317 79.092c3.552-0.688 1.458 5.011-0.633 1.906-0.341-1.186 0.788-0.905 0.633-1.906z" fill-rule="evenodd"/>
<path clip-rule="evenodd" d="m47.966 80.999c0.499 0.136 0.271 1 1.269 0.635 0.155 1.212-0.088 2.028-0.633 2.541-0.933-0.058-2.244-0.412-1.908-2.541 0.563-0.073 1.593 0.32 1.272-0.635z" fill-rule="evenodd"/>
<path clip-rule="evenodd" d="m136.9 81.952c3.313 1.613-1.722 4.79-1.588 0.636 0.64-0.772 1.36 0.535 1.59-0.636z" fill-rule="evenodd"/>
<path clip-rule="evenodd" d="m30.179 82.587c1.624-0.036 3.014 0.16 2.859 1.905-0.551 0.849-0.931 0.053-1.271 1.271-0.649-0.567-0.088-1.172-1.272-0.635-0.192-0.761-0.456-1.45-0.316-2.541z" fill-rule="evenodd"/>
<path clip-rule="evenodd" d="m129.6 83.222c1.469 0.556 1.885 1.796 0.636 2.859-0.284-0.195-0.568-0.384-0.636 0-0.515-0.543-0.962-1.157-0.954-2.223 0.54 0.013 0.82-0.236 0.95-0.636z" fill-rule="evenodd"/>
<path clip-rule="evenodd" d="m34.625 86.081c1.541 0.046 1.954 1.826 1.269 3.175-0.383-0.358-0.574-0.906-1.587-0.634 0.005-1.372-0.584-1.781 0.318-2.541z" fill-rule="evenodd"/>
<path clip-rule="evenodd" d="m27.32 86.715c0.851 0.971 0.393-0.276 1.587 0.636 0.155 1.212-0.09 2.028-0.636 2.541-1.163-0.319-2.13-0.833-1.905-2.541 0.651 0.643 0.633-0.129 0.954-0.636z" fill-rule="evenodd"/>
<path clip-rule="evenodd" d="m144.53 89.256c0.604 2.485-1.481 3.702-3.175 2.859 0.05-1.948 1.36-2.658 3.17-2.859z" fill-rule="evenodd"/>
<path clip-rule="evenodd" d="m35.261 91.163c1.003-0.438 1.916 0.787 2.223 0 0.855 1.03 0.341 1.731 0 2.858-1.949 0.253-2.133-1.254-2.223-2.858z" fill-rule="evenodd"/>
<path clip-rule="evenodd" d="m126.42 91.481c1.336-0.384 1.394 0.513 2.223 0.635 0.233 0.972-0.548 0.933-0.315 1.905-0.542 0.066-0.824-0.541-0.953 0-0.96-0.419-1.36-1.594-0.95-2.54z" fill-rule="evenodd"/>
<path clip-rule="evenodd" d="m150.25 93.07c-0.328 1.494 1.106 1.223 0.636 2.858-0.311-0.011-0.248-0.388-0.318-0.636-0.372 0.052-0.266 0.579-0.317 0.951-2.4 0.352-2.47-4.683 0-3.173z" fill-rule="evenodd"/>
<path clip-rule="evenodd" d="m97.835 94.657c0.235-0.716 1.78-0.124 2.541-0.315-0.052 0.367 0.069 0.563 0.317 0.633 0.019 1.88-1.108 1.383-1.587 2.224-0.874-0.58-1.327-1.927-1.278-2.542z" fill-rule="evenodd"/>
<path clip-rule="evenodd" d="m133.41 94.974c0.438 0.893 0.837 1.828 0.314 2.859-1.333 0.385-1.391-0.515-2.223-0.636 0.19-1.192 0.28-2.473 1.91-2.223z" fill-rule="evenodd"/>
<path clip-rule="evenodd" d="m91.481 98.152c0.008 0.749-0.545 0.936-0.315 1.904h-1.907c-0.049-1.011-0.719-1.398-0.634-2.541 1.23 0.369 1.624-0.552 2.856 0.633z" fill-rule="evenodd"/>
<path clip-rule="evenodd" d="m61.625 97.515c1.292-0.021 1.367 1.174 1.269 2.541-0.54-0.116-0.6 0.248-0.636 0.637-0.308-0.008-0.246-0.391-0.315-0.637-0.411-0.101-1.414-0.432-1.272-1.904 0.256-0.279 0.871-0.194 0.954-0.641z" fill-rule="evenodd"/>
<path clip-rule="evenodd" d="m131.5 99.103c0.486 1.013 0.111 1.398 0 2.543-0.788 0.411-1.541-0.708-1.587 0-0.455-0.393-0.603-1.093-0.636-1.907 0.84-0.126 0.9-1.023 2.23-0.64z" fill-rule="evenodd"/>
<path clip-rule="evenodd" d="m107.68 102.6c-0.543 0.067-0.822-0.543-0.951 0-0.636-0.424-0.708-1.408-0.954-2.223 1.72-1.479 3.13 0.45 1.9 2.22z" fill-rule="evenodd"/>
<path clip-rule="evenodd" d="m146.44 99.739c0.566 1.08 0.251 2.094-0.317 2.858-0.978-0.082-1.43-0.688-2.224-0.951v-1.59c0.45-0.494 1.62-0.283 2.54-0.321z" fill-rule="evenodd"/>
<path clip-rule="evenodd" d="m151.52 99.739h2.224c0.565 1.019 0.615 1.603 0.317 2.858-1.559-0.066-1.21-0.204-2.541-0.636v-2.221z" fill-rule="evenodd"/>
<path clip-rule="evenodd" d="m96.881 103.55c-0.861-0.408-1.802-0.736-1.587-2.223 1.804-1.555 3.234 0.85 1.587 2.22z" fill-rule="evenodd"/>
<path clip-rule="evenodd" d="m86.399 103.55c-0.426 1.931-2.678-0.672-2.541 1.27-0.548-0.722-0.677-1.861-0.633-3.175 1.246 0.48 2.957-1.07 3.174 1.91z" fill-rule="evenodd"/>
<path clip-rule="evenodd" d="m58.766 101.65c0.744 0.102 0.71 0.982 1.269 1.27 0.155 1-0.975 0.721-0.633 1.905-0.706-0.396-0.861-1.453-1.59-0.315-0.644-0.204-0.209-1.486-0.951-1.59 0.755-0.87 1.277-0.13 1.905-1.26z" fill-rule="evenodd"/>
<path clip-rule="evenodd" d="m74.33 101.65c0.858 0.094 0.569 1.334 1.269 1.588-0.264 0.796-0.869 1.245-0.951 2.223-0.946-0.86-1.967-2.97-0.318-3.81z" fill-rule="evenodd"/>
<path clip-rule="evenodd" d="m24.46 104.5c1.003-0.155 1.122 0.571 2.223 0.315 0.297 1.256 0.249 1.843-0.318 2.858-0.56-0.55-3.011-1.2-1.905-3.18z" fill-rule="evenodd"/>
<path clip-rule="evenodd" d="m157.55 104.82c0.146 1.08 1.169 2.414 0.318 3.495-1.786-0.014-1.763-1.836-2.224-3.178 0.75 0.79 0.52-0.83 1.9-0.32z" fill-rule="evenodd"/>
<path clip-rule="evenodd" d="m148.34 105.46c1.342 0.512 2.021 1.717 1.587 3.177h-1.905c-0.47-1.42-0.1-1.98 0.32-3.18z" fill-rule="evenodd"/>
<path clip-rule="evenodd" d="m56.543 105.78c0.563 0.6 1.047 1.281 0.951 2.541-0.925-0.078-1.096 0.6-1.587 0.953-1.292-0.385-1.264-1.6-0.954-2.858 0.6-0.14 1.916 0.43 1.59-0.63z" fill-rule="evenodd"/>
<path clip-rule="evenodd" d="m94.022 106.41c0.563 0.39 1.676 0.229 1.908 0.954 0.256 2.119-1.417 1.075-1.271 2.538-0.565-0.98-2.051-2.37-0.637-3.49z" fill-rule="evenodd"/>
<path clip-rule="evenodd" d="m61.943 107.04c0.269-0.057 0.3 0.124 0.315 0.321 0.276 0.936 0.476-0.74 1.271-0.321 0.14 0.284 0.279 0.569 0.636 0.636 0.057 2.687-3.247 3.787-2.859 0 0.541 0.12 0.601-0.25 0.637-0.64z" fill-rule="evenodd"/>
<path clip-rule="evenodd" d="m107.36 107.36c1.031-0.187 1.479 0.214 2.226 0.314 0.137 1.094-0.127 1.781-0.318 2.544-0.902 0.052-0.62-1.075-1.907-0.636v-2.21z" fill-rule="evenodd"/>
<path clip-rule="evenodd" d="m79.094 107.68h2.223c-0.051 1.006 0.846 1.062 0.636 2.224-0.282 0.142-0.569 0.279-0.636 0.636-1.406-0.52-2.28-0.45-2.223-2.86z" fill-rule="evenodd"/>
<path clip-rule="evenodd" d="m66.071 108c0.375 0.364 1.122 0.359 1.905 0.318 0.644 1.096 0.421 1.406 0.318 2.858-0.308-0.01-0.246-0.388-0.318-0.636-1.649 1.01-2.476-0.16-1.905-2.54z" fill-rule="evenodd"/>
<path clip-rule="evenodd" d="m89.577 108.63c0.139 1.094-0.125 1.781-0.318 2.541-0.435-0.729-1.541-0.788-2.224-1.271-0.468-1.69 1.603-1.97 2.542-1.27z" fill-rule="evenodd"/>
<path clip-rule="evenodd" d="m34.307 109.27c0.765-0.132 0.69 0.579 1.587 0.318 0.191 1.176 0.525 1.841-0.315 2.538-0.669-0.39-1.241-0.879-1.908-1.269 0.137-0.61 0.685-0.8 0.636-1.59z" fill-rule="evenodd"/>
<path clip-rule="evenodd" d="m32.084 110.54c0.238 1.934-0.835 3.208 0.954 3.495-0.514 0.651-0.044 2.287-1.271 2.223-1.378 0.494-1.825-3.453-0.636-2.541 0.22-1.595-1.274-1.476-0.951-3.177 0.591-0.62 1.162-0.1 1.904 0z" fill-rule="evenodd"/>
<path clip-rule="evenodd" d="m26.048 110.54c0.825 0.135 1.466 0.129 2.223 0.954 0.016 0.967-0.669 1.232-0.951 1.905-1.006 0.041-1.673-0.727-2.223-1.905-0.127-0.77 1.445 0.17 0.951-0.96z" fill-rule="evenodd"/>
<path clip-rule="evenodd" d="m74.966 111.49c0.605 0.595 0.796 0.033 1.587 0 0.692 0.763 0.874 2.445 0 3.177-1.23 0.58-2.339-1.63-1.587-3.18z" fill-rule="evenodd"/>
<path clip-rule="evenodd" d="m159.46 111.49c0.796 1.028 0.093 2.681-0.318 3.492-0.653-0.827-1.987-0.975-1.59-2.859 0.9 0.06 0.62-1.07 1.91-0.63z" fill-rule="evenodd"/>
<path clip-rule="evenodd" d="m37.802 112.12c0.269-0.057 0.3 0.124 0.318 0.321 0.29 0.352 0.589 0.098 1.587 0.314 0.801 2.549-1.174 2.396-1.905 1.908-0.657-0.26-0.336-2.2 0-2.54z" fill-rule="evenodd"/>
<path clip-rule="evenodd" d="m153.74 112.45c1.025-0.394 0.242 1.025 1.269 0.633 0.14 1.094-0.124 1.781-0.315 2.541-0.887-0.488-2.055-0.698-1.907-2.223 0.37-0.99 0.91 0.17 0.95-0.95z" fill-rule="evenodd"/>
<path clip-rule="evenodd" d="m59.402 112.76c1.693 0.499 1.114 3.95-1.272 3.178-0.184-0.665-0.789-0.908-0.636-1.905 0.163-0.91 1.802-0.32 1.908-1.28z" fill-rule="evenodd"/>
<path clip-rule="evenodd" d="m140.08 113.08h1.905c0.441 1.386-0.127 1.74-0.634 2.859-0.284-0.194-0.568-0.386-0.636 0-1.14-0.48-0.9-1.65-0.63-2.86z" fill-rule="evenodd"/>
<path clip-rule="evenodd" d="m53.048 113.4h1.905c-0.005 0.749 0.548 0.936 0.318 1.907-1.202-0.46-0.61 0.871-1.587 0.634-0.018-1.04-0.905-1.21-0.636-2.54z" fill-rule="evenodd"/>
<path clip-rule="evenodd" d="m65.117 114.03h1.59c0.755 1.422 0.078 2.938-0.636 3.81-0.584-0.476-0.791-1.323-1.587-1.587 0.351-0.59 0.403-1.49 0.633-2.22z" fill-rule="evenodd"/>
<path clip-rule="evenodd" d="m109.9 114.35h1.907c0.771 1.383-0.016 2.601-0.636 3.492-0.79-0.79-1.38-1.78-1.27-3.49z" fill-rule="evenodd"/>
<path clip-rule="evenodd" d="m82.271 114.98c0.625 0.664 0.243 2.109 0 2.858-1.215-0.504-0.375-0.504-1.587 0-0.049-1.008-0.722-1.396-0.636-2.538 1.137-0.41 1.163 0.03 2.223-0.32z" fill-rule="evenodd"/>
<path clip-rule="evenodd" d="m30.179 116.89v2.224c-1.763 0.279-1.719-1.246-2.541-1.905 0.881-0.75 1.54-1.21 2.541-0.31z" fill-rule="evenodd"/>
<path clip-rule="evenodd" d="m39.071 116.26c1.461 0.615 0.838 2.353 0.318 3.495-0.577-0.799-1.249-1.505-1.587-2.541 0.085-0.66 1.406-0.08 1.269-0.96z" fill-rule="evenodd"/>
<path clip-rule="evenodd" d="m90.53 116.89c1.569 0.439 0.722 2.484 0.318 3.495-0.445-0.615-1.177-0.943-1.908-1.271-0.357-1.62 0.739-1.8 1.59-2.22z" fill-rule="evenodd"/>
<path clip-rule="evenodd" d="m96.248 117.21c0.577 1.083-0.044 1.525 0 2.856-0.845 0-1.814 0.121-2.226-0.315v-1.908c1.249 0.29 0.802-1.11 2.226-0.64z" fill-rule="evenodd"/>
<path clip-rule="evenodd" d="m124.52 117.84c0.566 0.595 0.807-0.258 1.905 0 1.489 1.649-0.553 3.302-1.587 3.178-0.75-0.63-0.75-2.21-0.31-3.18z" fill-rule="evenodd"/>
<path clip-rule="evenodd" d="m158.19 117.84h1.59c0.466 1.078 0.549 3.167-0.953 3.178-0.42-0.86-0.79-1.76-0.64-3.18z" fill-rule="evenodd"/>
<path clip-rule="evenodd" d="m34.943 118.16h2.223c-0.23 0.969 0.326 1.155 0.318 1.902-0.737 0.763-1.479 0.031-1.59 0.954-0.419-1.01-1.556-1.68-0.951-2.85z" fill-rule="evenodd"/>
<path clip-rule="evenodd" d="m73.694 118.16c0.019 1.039 0.905 1.212 0.636 2.538-0.631 0.005-0.403 0.868-1.272 0.636 0.091-0.568-0.3-0.651-0.315-0.317-0.763 0.126 0.176-1.445-0.954-0.954 0.266-0.367 0.418-0.851 0.318-1.587 0.897 0.26 0.822-0.45 1.587-0.32z" fill-rule="evenodd"/>
<path clip-rule="evenodd" d="m148.66 118.48c1.251-0.191 1.648 0.47 2.223 0.953-0.248 0.812-0.788 1.329-1.271 1.905-1.46-0.04-1.83-2.29-0.95-2.86z" fill-rule="evenodd"/>
<path clip-rule="evenodd" d="m66.071 121.66c-0.669 0.421-0.938-0.158-1.905 0.317-0.267-0.688-0.822-1.083-0.636-2.223 1.264-0.88 3.089-0.05 2.541 1.9z" fill-rule="evenodd"/>
<path clip-rule="evenodd" d="m40.661 123.56c-0.633-0.527-0.406 0.03-1.271 0-0.127-0.825-0.949-0.957-0.954-1.905 0.878-2.52 3.607-0.38 2.225 1.9z" fill-rule="evenodd"/>
<path clip-rule="evenodd" d="m31.13 121.34c0.238-0.716 1.781-0.124 2.541-0.317 0.194 0.762 0.458 1.45 0.318 2.541-0.476-0.228-1.336-0.243-1.587 0-1.031-0.13-0.633-1.69-1.272-2.22z" fill-rule="evenodd"/>
<path clip-rule="evenodd" d="m102.28 121.02c0.529-0.318 0.842 0.641 0.953 0.636 0.362-0.016 0.171-0.612 0.318-0.636 2.616-0.38 2.902 4.053-0.636 3.177-0.78-1.19-0.87-1.3-0.63-3.18z" fill-rule="evenodd"/>
<path clip-rule="evenodd" d="m153.42 121.66c1.763-0.444 2.194 2.742 0.636 2.858-1.24 0.1-1.14-2.2-0.64-2.86z" fill-rule="evenodd"/>
<path clip-rule="evenodd" d="m81.953 122.29c0.848 0.778 0.995 1.554 0.636 2.859-0.39-0.354-0.654-0.277-0.636 0.317-0.543 0.067-0.822-0.543-0.954 0-0.83-0.336-1.037-1.292-0.951-2.544 0.535-0.5 1.427 0.38 1.905-0.64z" fill-rule="evenodd"/>
<path clip-rule="evenodd" d="m110.86 122.92h1.905c0.083 1.458 0.339 1.536 0 2.859-0.543 0.067-0.822-0.54-0.951 0-1.07-0.2-1.02-1.52-0.95-2.86z" fill-rule="evenodd"/>
<path clip-rule="evenodd" d="m137.54 122.92c0.176 0.569 0.163 1.321 0.636 1.59-0.3 0.654-1.251 0.657-1.271 1.59-0.794 0.419-0.993-1.256-1.27-0.32-0.83-1.15 0.1-3.26 1.9-2.86z" fill-rule="evenodd"/>
<path clip-rule="evenodd" d="m35.579 123.56h2.223c0.473 1.419 0.186 2.052-0.636 2.858-0.796-0.68-1.647-1.32-1.587-2.86z" fill-rule="evenodd"/>
<path clip-rule="evenodd" d="m65.753 124.2c1.988 0.031 2.306 1.251 1.59 3.495-0.577-0.483-1.096-1.024-1.908-1.272-0.184-1.04 0.217-1.49 0.318-2.23z" fill-rule="evenodd"/>
<path clip-rule="evenodd" d="m131.5 124.83c0.225 1.179-0.543 1.362-0.318 2.541-0.785 0.411-1.54-0.708-1.587 0-0.625-0.54-0.853-1.476-0.954-2.541 1.3 0.11 1.71-1.14 2.86 0z" fill-rule="evenodd"/>
<path clip-rule="evenodd" d="m148.98 124.83c0.284 0.931 0.284 0.978 0 1.905-1.755 0.271-2.448-0.518-2.541-1.905 0.46-0.47 2.07-0.47 2.54-0.01z" fill-rule="evenodd"/>
<path clip-rule="evenodd" d="m38.753 125.15c0.271-0.06 0.3 0.121 0.318 0.317 0.042 0.7 1.347 0.135 1.908 0.315 0.483 1.014 0.111 1.398 0 2.544-1.308-0.044-1.057-0.383-2.226-0.954v-2.22z" fill-rule="evenodd"/>
<path clip-rule="evenodd" d="m71.789 125.78c2.75 0.215 1.708 4.609-0.636 2.544v-1.908c0.558 0.47 0.724 0.3 0.636-0.63z" fill-rule="evenodd"/>
<path clip-rule="evenodd" d="m89.258 127.06c0.744 1.396 0.507 2.027-0.318 3.178-0.915-0.58-2.323-3.45 0.318-3.18z" fill-rule="evenodd"/>
<path clip-rule="evenodd" d="m120.39 127.38c1.028-0.184 1.476 0.215 2.223 0.318 0.512 1.021 0.262 2.104-0.317 2.858-0.256-0.222-0.871-0.496-0.954 0-1.02-0.36-1.01-1.76-0.95-3.18z" fill-rule="evenodd"/>
<path clip-rule="evenodd" d="m139.45 128.64c0.868-0.23 0.641 0.631 1.271 0.636 0.209 1.693-0.135 2.83-0.954 3.495-0.559-0.797-0.524-0.223-1.269-0.637-0.27-1.75 0.46-2.5 0.95-3.5z" fill-rule="evenodd"/>
<path clip-rule="evenodd" d="m80.684 129.28c1.124-0.171 0.78 1.127 1.905 0.954-0.352 0.6-0.406 1.502-0.636 2.223-1.362 0.013-1.044-0.393-2.223-0.954-0.334-1.39 1.073-1.04 0.954-2.22z" fill-rule="evenodd"/>
<path clip-rule="evenodd" d="m153.1 129.28c0.745 0.904 0.218 2.569-0.636 2.858-1.8-0.05-1.61-3.44 0.64-2.86z" fill-rule="evenodd"/>
<path clip-rule="evenodd" d="m102.92 129.6c0.499 0.138 0.271 1.001 1.271 0.637 0.352 2.256 0.096 2.587-1.271 3.492-1.3-1.17-0.79-2.75 0-4.13z" fill-rule="evenodd"/>
<path clip-rule="evenodd" d="m113.4 130.23c0.435 1.703-0.594 1.946-0.951 2.858-0.499-0.137-0.273-1-1.271-0.636-0.173-1.267-0.173-0.956 0-2.223 1.16-0.07 1.21-0.43 2.22 0z" fill-rule="evenodd"/>
<path clip-rule="evenodd" d="m129.28 130.55c1.835-0.031 2.06 2.877 0.636 3.495-0.651-0.938-1.954-1.226-1.588-3.18 0.45 0.36 0.77 0.35 0.95-0.31z" fill-rule="evenodd"/>
<path clip-rule="evenodd" d="m147.7 131.5c0.152 1.001-0.452 1.241-0.636 1.908-0.978-0.223-0.61-0.223-1.588 0 0.034-0.987-1-0.907-0.636-2.224 1-0.58 2.06-0.7 2.87 0.31z" fill-rule="evenodd"/>
<path clip-rule="evenodd" d="m95.612 131.19c0.817 0.559 1.125 1.626 0.954 3.175-0.81 0.548-1.233-0.483-1.271 0.636-0.644-0.628-0.755-1.783-1.272-2.541 0.385-1.23 1.48 0.23 1.589-1.27z" fill-rule="evenodd"/>
<path clip-rule="evenodd" d="m84.812 135.32h1.587c-0.116 0.54 0.248 0.597 0.636 0.633-0.364 0.378-0.358 1.125-0.317 1.908-1.251 0.62-0.972-0.621-2.223 0-0.141-1.09 0.126-1.78 0.317-2.54z" fill-rule="evenodd"/>
<path clip-rule="evenodd" d="m143.58 135.32c-0.155 1 0.974 0.719 0.636 1.904-0.311 0.011-0.248 0.389-0.318 0.637-0.987 0.418-0.907-0.088-2.226 0-0.318-0.843-0.331-1.618 0.318-2.224 0.75-0.42 0.59 0.04 1.59-0.32z" fill-rule="evenodd"/>
<path clip-rule="evenodd" d="m99.741 139.44c-0.403-0.866-1.443-1.096-1.27-2.541 3.039-2.27 3.959 2.9 1.27 2.54z" fill-rule="evenodd"/>
<path clip-rule="evenodd" d="m119.12 137.22c6.51-1.53-0.05 6.17 0 0z" fill-rule="evenodd"/>
<path clip-rule="evenodd" d="m70.517 149.93c1.471 0.114 1.885 1.897 1.272 3.175-1.776-0.31-2.104-1.79-1.272-3.17z" fill-rule="evenodd"/>
<path clip-rule="evenodd" d="m77.189 151.83c1.737-0.222 1.766 1.756 1.269 2.859-0.93-0.548-1.998-0.967-1.905-2.538 0.39 0.35 0.652 0.27 0.636-0.32z" fill-rule="evenodd"/>
<path clip-rule="evenodd" d="m73.376 152.78c1.055 0.22 1.44 1.104 1.59 2.226-0.377 0.364-1.125 0.356-1.908 0.315 0.13-1.24-0.822-2.01 0.318-2.54z" fill-rule="evenodd"/>
<path clip-rule="evenodd" d="m81.317 153.1c0.419 0.325 1.171 0.31 1.59 0.636 0.099 1.158-0.052 2.067-0.318 2.858-0.83-0.548-1.541-1.215-1.905-2.223 0.134-0.5 0.998-0.28 0.633-1.28z" fill-rule="evenodd"/>
<path clip-rule="evenodd" d="m130.87 153.1h0.952c0.364 0.889 0.364 1.651 0 2.541-3.633 0.504-4.242 0.967-8.577 1.59 0.049-0.791-0.163-1.318-0.634-1.59 1.869-1.962 4.167-1.303 6.033-1.588 0.439-0.066 0.065-0.452 0.318-0.636 0.28-0.19 2.39 0.82 1.91-0.31z" fill-rule="evenodd"/>
<path clip-rule="evenodd" d="m89.577 154.06c0.271-0.059 0.299 0.125 0.317 0.318 0.194 0.312 1.522 0.047 1.905 0.951-0.07 2.304-1.35 1.769-2.541 0.954-0.254-1.1 0.473-1.22 0.319-2.22z" fill-rule="evenodd"/>
<path clip-rule="evenodd" d="m87.035 156.28c-0.581 1.233-1.913 0.463-2.223 0.636-0.556-0.292-0.701-0.995-0.636-1.905 1.016-1 3.11-0.72 2.859 1.26z" fill-rule="evenodd"/>
<path clip-rule="evenodd" d="m132.78 155.96c1.187 0.028 0.905 0.357 1.905 0 0.52 0.771 0.81 1.544 0.318 2.541 0.923 0.453 2.138 0.613 1.905 2.224-0.854-0.22-0.613 0.659-0.951 0.953-0.458 0.171-0.776-1.237-0.954-0.317-1.037-0.895-0.838-1.626-0.318-2.859-1 0.2-2.8-0.72-1.9-2.53z" fill-rule="evenodd"/>
<path clip-rule="evenodd" d="m73.376 156.92c0.791-0.049 0.985 0.499 1.59 0.634 0.186 1.143-0.37 1.538-0.636 2.223-1.024-0.47-2.053-2.07-0.954-2.85z" fill-rule="evenodd"/>
<path clip-rule="evenodd" d="m76.553 156.92c0.604 0.598 0.574-0.188 1.587 0 0.336 1 1.244 1.425 0.636 2.541-0.93-0.284-0.974-0.284-1.905 0-0.403-0.89-0.783-1.57-0.318-2.54z" fill-rule="evenodd"/>
<path clip-rule="evenodd" d="m129.6 156.92c0.375 0.364 1.122 0.359 1.905 0.318 0.023 1.08 0.101 2.215-0.634 2.538 0.442 0.512 1.567 0.341 1.905 0.954 0.23 0.972-0.325 1.158-0.317 1.905-1.187 0.341-0.905-0.786-1.905-0.634v-2.226c-0.91 0.22-2.34-1.62-0.96-2.86z" fill-rule="evenodd"/>
<path clip-rule="evenodd" d="m141.67 159.77h-2.223c-0.267-0.685-0.822-1.08-0.634-2.223 0.683 0.689 0.76-0.849 2.224-0.315 0.54 0.78 1.1 1.55 0.63 2.53z" fill-rule="evenodd"/>
<path clip-rule="evenodd" d="m81.317 158.5c0.282 0.246 0.719 0.342 1.272 0.318 0.489 0.904 0.957 2.174 0 2.858-0.444-0.615-1.176-0.94-1.905-1.271-0.181-1.03 0.095-1.6 0.633-1.91z" fill-rule="evenodd"/>
<path clip-rule="evenodd" d="m85.766 160.09h1.269c-0.052 0.367 0.07 0.563 0.318 0.634 0.323 1.383-0.656 1.46-0.954 2.226-0.506-0.88-1.196-1.77-0.633-2.86z" fill-rule="evenodd"/>
<path clip-rule="evenodd" d="m108 160.09c2.223-0.54 4.04 0.698 2.858 2.539-1.61-0.065-1.855-1.009-2.858-0.952v-1.59z" fill-rule="evenodd"/>
<path clip-rule="evenodd" d="m126.74 160.09c0.628 0.75 1.951 0.802 1.589 2.539-0.943 0.315-1.568 0.449-1.907 0.636-0.551-0.507-0.688-1.43-0.636-2.541 0.64 0.1 1-0.07 0.96-0.64z" fill-rule="evenodd"/>
<path clip-rule="evenodd" d="m77.507 160.73c0.367 0.266 0.851 0.421 1.587 0.317-0.07 1.024 0.561 1.345 0.318 2.541-1.375 0.318-1.763-0.354-2.541-0.633-0.207-1.17 0.214-1.7 0.636-2.23z" fill-rule="evenodd"/>
<path clip-rule="evenodd" d="m91.166 160.73c1.055 0.895 1.574 2.742 0.315 3.494-1.946 0.03-2.091-3.22-0.315-3.49z" fill-rule="evenodd"/>
<path clip-rule="evenodd" d="m114.99 160.73c1.199 0.429 1.541-0.127 2.541 0.636v1.905c-0.393-0.354-0.653-0.274-0.636 0.317-1.47 0.07-2.42-1.08-1.9-2.87z" fill-rule="evenodd"/>
<path clip-rule="evenodd" d="m143.26 160.73c0.269-0.06 0.3 0.124 0.318 0.317 1.237 0.102 2.665-0.483 2.541 2.224-0.515 0.545-1.329 0.791-2.541 0.636-0.7-1.19-0.41-1.46-0.32-3.18z" fill-rule="evenodd"/>
<path clip-rule="evenodd" d="m80.999 163.9c0.199-0.678 1.957-0.298 2.226 0 0.013 0.967 0.183 2.091-0.954 1.907-1.279 0.22-0.538-1.58-1.272-1.91z" fill-rule="evenodd"/>
<path clip-rule="evenodd" d="m141.99 164.86c0.113 1.274-0.006 2.323-0.951 2.541-1.523 0.036-1.908-1.061-1.908-2.541 1.6-0.22 1.58-0.8 2.86 0z" fill-rule="evenodd"/>
<path clip-rule="evenodd" d="m86.082 165.17c0.408 0.439 1.502 0.194 1.907 0.636v1.588c-0.235 0.506-1.556-0.072-1.271 0.951-0.906-0.54-1.228-2.02-0.636-3.18z" fill-rule="evenodd"/>
<path clip-rule="evenodd" d="m135.64 166.44h1.905c0.253 0.595 0.529 1.163 0.636 1.905-1.27 1.7-3.35 0.58-2.54-1.9z" fill-rule="evenodd"/>
<path clip-rule="evenodd" d="m87.989 6.036c0.46-0.996-1.54-2.654-2.223-2.859-0.228-0.069-0.388 0.602-0.318 0.634-0.429-0.206-1.052-2.021-2.859-1.271 0.266 0.792 0.417 1.702 0.318 2.859-0.788 0.613-3.378-0.576-2.223-1.906-0.89-0.543-1.551 0.199-2.859-0.316v-1.907c1.921-0.6 4.015-0.542 5.082-1.271v0.636c0.651-1.131 1.393 0.49 1.905-0.635 1.373 0.537 2.081 1.781 3.812 2.859 0.662 0.413 1.866 0.259 1.588 1.589 1.618 0.182 2.433 1.166 3.177 2.223 0.631-0.004 0.403-0.867 1.27-0.634 2.538 2.5 5.36 2.77 6.989 6.035 2.941 0.446 4.263 2.514 6.033 4.129 5.604 1.063 7.701 7.819 11.754 11.435 1.367 3.844 4.454 7.525 6.987 10.8 2.078 2.683 2.918 6.714 4.448 11.435 0.538 1.667 1.528 3.044 1.905 4.766 0.773 3.516 0.967 7.481 1.27 12.07 4.891 1.7 8.122 6.322 12.072 9.846 0.54 2.424 3.065 2.863 4.128 4.764 3.939 2.309 4.728 7.768 7.623 11.118 0.16 2.487 1.334 3.961 2.858 5.082 1.564 2.898 2.221 5.956 3.813 8.577 0.612 1.009 1.571 1.329 2.223 2.541 2.872 5.336 1.381 12.333 1.587 19.374 0.163 5.522-3.566 9.712-5.715 13.659-0.664 1.218-1.838 2.73-2.859 3.813-2.711 0.359-3.624 2.518-5.082 4.128 0.147 5.974-2.179 9.472-3.494 13.977-0.419 0.38-0.499 0.124-0.954 0-0.354 2.396-2.652 2.852-2.859 5.4-0.688 0.685-2.047 1.497-2.541 1.907-1.044 0.869-0.943 1.011-2.223 1.588-0.311 0.14-0.69 0.408-0.954 0.636-0.641 0.553-1.318 1.422-2.541 1.905-0.794 0.315-1.771 0.046-2.541 0.317-0.979 0.344-1.921 1.309-2.859 1.588-1.225 0.366-3.055-0.021-4.445 0.317-2.937 0.716-6.603 1.59-9.528 1.27-0.556 1.179-2.787 0.383-3.177 0.954-1.301-1.502-4.437-0.197-5.082-0.318-0.807-0.15-1.192-0.727-2.859-0.315-2.246-1.778-7.391 0.016-10.164-1.59-0.562 1.331-3.035-1.187-3.177 0 0.361-0.147-2.531-1.226-1.905-1.27-0.137 0.011-0.45 0.595-0.318 0.634-0.352-0.106-1.722-1.264-1.905-1.27-0.168-0.005-0.429 0.595-0.317 0.636-0.32-0.11-0.626-0.821-0.954-0.953-0.809-0.328-2.12-0.072-2.859-0.318 0.375 0.124-1.957-1.08-1.587-0.636-0.688-0.827-1.026-0.551-2.223-0.951-0.336-0.114-0.253-0.512-0.636-0.636-1.45-0.468-3.027-1.401-3.813-2.859-3.663-1.026-6.418-5.341-10.164-7.305-1.349-2.357-2.874-4.539-4.446-6.672 0.096-5.072-1.76-8.797-1.272-13.342-0.093-0.646-0.858-0.622-0.951-1.269-2.231-0.16-4.247-0.559-5.4-1.272-1.996-1.232-2.541-3.544-3.813-3.492-0.251 0.008-0.701 0.308-0.636 0.315-0.23-0.03-0.305-0.636-0.318-0.636-0.71-0.01-1.435 0.838-2.223 0.636-0.419-0.104-0.499-0.553-0.952-0.636-1.683-0.295-2.099 0.486-3.177-0.633-0.592 0.044-1.062 0.209-1.272 0.633-2.099-1.494-4.296-1.16-6.669-1.902-4.808-1.507-8.109-5.542-13.023-7.941-0.768-0.801-1.127-1.708-1.907-2.543-0.641-0.688-2.065-1.257-2.541-1.905-1.474-2.014-2.474-7.311-2.856-9.847-0.137-0.902-0.809-1.731-0.954-2.541-0.057-0.312 0.352-0.959 0.318-1.271-0.072-0.639-0.576-1.037-0.636-1.587-0.445-4.082-0.331-8.334-1.905-12.39-0.37-1.073-1.662-1.37-2.541-2.223-0.654-0.632-0.972-1.736-1.589-2.224-0.527-0.417-0.814 0.143-1.27-0.318-0.372-0.373-0.212-1.025-0.636-1.587-0.435-0.575-1.388-0.693-1.905-1.271-0.191-0.213-0.178-0.721-0.318-0.953-0.352-0.585-0.964-0.562-1.272-0.954-1.409-1.802-2.937-5.327-3.81-7.941-0.771-2.302-0.016-3.623 0-6.353 0.005-1.376-0.672-2.825-0.636-4.129 0.019-0.625 0.51-1.122 0.636-1.905 0.142-0.874-0.147-2.132 0-2.859 0.421-2.098 1.838-4.45 2.541-6.988 0.615-2.229 0.538-4.813 1.269-6.671 0.377-0.954 2.632-3.011 2.223-5.082 1.029 0.393 0.243-1.027 1.272-0.636 1.049-3.713 3.59-5.938 4.764-9.528 2.226-2.222 4.41-4.486 5.4-7.941 1.564-1.614 3.045-3.31 4.131-5.4 0.282 1.634 2.97-2.928 4.446-4.129 0.111-0.09 0.479 0.482 0.636 0.316 1.029-1.087 1.522-3.471 2.541-2.857 1.538-1.699 3.761-3.843 5.718-4.129 1.639-2.279 4.751-3.464 5.715-4.766 1.2-0.071 2.875 0.333 3.177-0.635 0.382-0.726 1.535 0.633 1.271 0.635 0.352-0.001 0.292-0.681 0.951-0.635 0.574 0.04 0.515 0.621 0.636 0.635 0.602 0.072 0.571-0.637 0.636-0.635 1.978 0.095 2.753 1.274 4.446 0 0.75-0.564 1.499-1.357 2.541-2.541 2.249 0.393 4.566 0.504 5.067-0.336 3.247 0.793 7.093 0.905 6.99 5.718 0.29 0.556 0.589 1.104 1.587 0.952 0.732-0.808 0.507-1.976 1.587-2.859 0.346-0.28 0.843-0.046 1.272-0.318 0.977-0.614 0.816-1.514 0.954-1.588 0.176-0.096 1.388 1.526 0.633 0 0.949 0.217 1.065 1.265 0.954 2.542-2.073 0.362-3.014 1.854-4.128 3.175-0.005 2.518 2.195 3.308 3.492 4.766 0.884 0.991 0.747 2.627 2.223 2.857 0.209 2.334 1.504 3.581 2.859 4.766 2.673-0.976 0.458-4.616 0.318-8.259-0.021-0.554 0.432-0.692 0.318-1.271-0.336-1.716-1.303-2.478-2.223-3.812-0.432-0.624-0.45-2.317-1.905-2.223-0.14-1.092 0.124-1.781 0.318-2.542 0.848 0.739 1.893 1.283 3.174 1.588-1.057 1.627 1.05 2.445 1.908 3.177 0.093 4.187 3.42 12.491-0.318 15.882-0.274-0.893-1.719-0.611-2.859-0.635-0.972-0.617-1.042-2.135-2.541-2.224-0.46-1.446-0.84-2.972-1.59-4.13-3.438-2.171-4.782-6.439-8.256-8.575v-2.225c-1.137-2.502-6.574-2.471-9.531-1.905-0.512 0.653-1.716 0.613-1.587 1.905-1.218-0.158-1.681 0.437-1.908 1.272-3.081-0.836-6.478-0.958-9.528-0.318-4.286 4.29-10.965 6.187-13.977 11.752-3.635 1.234-4.63 5.11-7.941 6.67-1.339 4.588-4.782 7.076-6.352 11.435-0.812 0.504-1.499 2.623-2.223 4.129-0.372-0.051-0.269-0.579-0.318-0.953-1.838 5.151-5.674 8.302-6.036 14.93-0.589 1.316-1.52 2.292-1.272 4.446-2.109 1.988-2.055 6.307-1.905 11.118 0.052 1.6-0.119 3.349 0 4.446 0.771 7.054 7.176 11.125 9.846 15.564h1.272c0.796 2.37 3.244 3.606 5.4 5.4 1.303 1.085 2.425 2.554 3.495 3.177 0.344 0.201 1.246-0.023 1.905 0.318 0.848 0.439 0.75 0.545 2.223 0.951 0.775 0.217 1.639 0.413 2.859 0 0.631 2.533 4.035 0.264 6.036 2.226 0.199-0.54 0.959-0.525 1.269-0.954 2.942 1.629 4.888-1.424 7.941-1.587 1.321-0.13 0.812-2.436 2.223-1.59 0.535-2.96 3.208-3.779 3.813-6.669 0.708 1.375 1.236-1.02 1.587-1.906 2.743-2.447 5.364-5.012 7.941-7.624 0.664 0.135 0.843-0.218 1.272-0.317 1.22-1.745 3.714-2.214 4.446-4.448 0.985 0.048 1.737-0.217 2.541-0.953 0.497-0.452 0.644-1.671 0.954-1.906 0.258-0.194 0.305 0.639 0.318 0.636 1.034-0.22 4.255-2.901 4.764-4.446 2.138 0.297 1.708-1.347 3.495-1.271 0.3-0.547 1.174-0.52 0.951-1.587 1.06 0.523 1.815-1.593 2.859-1.271 1.84-1.4 2.394-2.071 5.399-2.858 0.665-0.394 1.194-0.924 1.59-1.588 0.344 0.079 0.215 0.632 0.634 0.636 0.987-0.36 0.512-0.614 1.907-0.318-0.341-0.072 0.99 0.261 0.634 0.318 0.398-0.063 0.259-0.746 0.954-0.636 0.7 0.111 1.587 0.636 2.541 0.953 1.202 0.46 0.609-0.873 1.587-0.635 0.281 0.778 0.954 1.166 0.636 2.541-1.569 1.059-3.063 0.24-3.811-0.636-6.281 0.765-9.781 1.846-13.659 6.354-1-0.43-1.091-0.099-1.272 0.953-0.667-0.104-1.675-0.278-1.587 0.953-0.595-0.612-2.161 0.763-3.177 1.589-0.975 0.792-2.355 1.779-2.541 2.858-1.569-1.765-2.177 2.028-4.128 1.905-2.453 2.632-5.004 5.162-8.259 6.989-0.373 0.051-0.269 0.579-0.318 0.953-2.309 0.658-3.687 2.245-4.449 4.447-1.158 0.005-1.424 0.902-2.223 1.271-0.026 2.198-2.236 2.212-2.223 4.447h-0.951c-0.104 0.745-0.504 1.191-0.318 2.224-3.82 4.115-6.181 9.734-5.718 17.787 0.256 4.475 2.345 8.062 5.082 11.436 1.096 1.352 2.415 2.458 3.495 4.128 3.559 5.517 9.35 7.491 14.292 8.577 0.191 1.08 1.835 0.708 1.905 1.908 4.798 1.447 6.615 5.878 12.072 6.669 0.178 0.984 1.494 0.835 1.587 1.905 1.957 0.364 3.309-0.432 4.131 0.636 1.559-0.181 1.21-0.618 2.541-0.636-0.116 0.54 0.248 0.6 0.636 0.636 0.15 1-0.454 1.24-0.636 1.905-4.291 0.176-4.738-0.584-7.623-0.636-1.587-2.402-3.797-2.017-5.082-3.175-0.458 0.391-0.602 1.091-0.636 1.905-1.187 0.339-0.905-0.788-1.905-0.636-0.194-1.185 0.812-2.009 0-2.859-0.982 0.184-1.181 1.15-1.59 1.905-0.736-0.215-1.093-0.812-1.587-1.27-1.166 0.106-0.282 2.26-1.59 2.224 0.845 2.05 1.187 2.996 1.272 5.399 0.905-0.155 0.91-1.204 1.269-1.905 1.212 0.163 1.621 1.133 1.59 2.541-0.998 0.359-0.84-0.093-1.59 0.318 0.525 1.91 1.386 3.484 2.541 4.764 0.833 0.088 1.368-0.116 1.272-0.953 1.419 0.426 1.856 1.3 0.954 2.541 0.799 1.287 2.006 2.719 3.174 3.812 0.708 0.662 1.781 0.912 2.541 1.587 0.207 0.184 0.083 0.789 0.318 0.954 0.463 0.32 1.649-0.093 1.59 0.951 1.538 0.155 3.035 0.354 3.492 1.59 3.443 0.907 7.805 1.822 10.482 2.541 0.292 0.078 0.264 0.334 0.318 0.636 1.372-0.771 5.258 0.915 5.718 0 0.198 0.54 0.959 0.522 1.271 0.951 2.601-0.747 4.56 0.099 6.352 0.637 1.427-0.306 2.766-1.12 4.448 0 1.014-0.574 1.668-0.51 2.541 0.317 0.372-0.052 0.267-0.579 0.315-0.954 1.667 0.326 5.09 0.153 6.99-0.951 0.636-0.108 0.992 0.064 0.951 0.636 0.501-1.193 5.429-0.242 5.718-1.589 2.877 0.664 4.25-2.076 7.941-2.224 1.67-1.295 2.833-3.097 5.082-3.812 1.37-3.5 4.937-4.803 4.767-9.847-0.53 0.318-0.228 1.471-0.954 1.59-0.571 0.039-0.67-0.39-1.271-0.32-0.491-0.46-0.279-1.623-0.315-2.538 1.011 0.594 1.936-0.688 2.223 0.636 0.083-2.319-3.029-6.028-5.399-3.495-0.207 1.267 1.207 0.91 2.223 0.951-0.23 0.972 0.548 0.936 0.318 1.908-0.98-0.238-0.61 0.871-1.59 0.636 0.284-1.029-1.034-0.45-1.27-0.954 0.069-1.163 0.437-1.218 0-2.226-2.771-0.099-3.98 0.284-5.4 2.544-1.574-0.439-0.561-3.464-1.271-4.767 5.39 0.46 7.998-1.944 11.118-1.588 0.863-0.419 2.21-2.011 2.858-1.587 1.006-1.114 1.797-2.44 3.495-2.859 0.372-0.051 0.267-0.578 0.318-0.953 0.609 0.06 2.988-1.303 4.446-2.541 3.324-2.823 5.387-8.076 7.305-12.072 0.075-7.744 2.852-19.636-3.177-22.869-1.125-2.05-0.946-5.405-3.175-6.352-0.912-3.748-4.28-5.04-4.448-9.53-2.014-2.037-2.461-4.9-4.128-6.987-1.745-2.183-4.904-4.059-6.987-6.354-1.23-1.352-1.983-3.183-3.177-4.446-0.753-0.794-2.164-0.785-2.224-2.224-1.502 0.017-1.807-1.16-2.541-1.906-2.277-1.099-3.189-0.735-5.085-2.541-5.544 0.424-10.368-1.941-14.292-4.765-0.235 0.506-1.556-0.073-1.271 0.954-2.001-1.766-4.234-2.328-6.987-3.812-0.468 1.238 1.064 3.419-1.271 3.812 0.09-0.724-0.075-1.194-0.634-1.271-0.237-0.979 1.094-0.388 0.634-1.588-0.07-0.458-0.946-0.111-0.952-0.636-2.05 2.599-8.651 6.647-7.94 0.954 1.199-0.46 0.607 0.873 1.587 0.635 3.12-1.192 4.31-3.829 7.306-3.812 0.848-0.41 0.234-1.782 0.636-1.905 0.749-0.41 0.592 0.042 1.59-0.318 0.346 0.711 0.524 1.591 0.951 2.223 1.546 0.147 1.196 0.212 2.223-0.318 0.982 2.65 2.712 4.088 5.4 2.225 1.163 0.318 0.863 2.102 2.226 2.223 0.785-0.273-0.096-2.211 0.633-2.541 3.852-0.12 0.688 3.346 2.541 4.764 4.157 1.25 4.493-1.97 6.036-4.129-0.279-1.236-1.683-1.835-0.954-3.176 1.582-0.31 1.26 1.284 2.226 1.588 0.35-5.434-2.535-10.382-3.812-15.248-0.651 0.089-0.633 0.849-0.954 1.271 0.649 1.022 2.112 2.88 0.637 4.129-1.282 0.013-1.309-1.233-2.224-1.588 0.168-1.102 0.861-1.68 1.27-2.541-1.003-0.64-1.965-0.615-1.905-2.859 0.984 0.108 1.518-0.735 2.223 0-1.108-4.079-4.898-5.478-6.351-9.211-0.711 0.137-0.13 1.565-0.318 2.224-1.651 0.661-2.262-0.396-2.223-2.224 0.405-0.434 1.499-0.434 1.905 0-1.729-5.471-5.669-8.729-8.577-13.023-1.897-0.749-3.77-1.526-5.082-2.859-0.673 0.727 0.142 1.126-0.318 2.225-1.308-0.008-2.021-0.188-2.541-1.588 0.956-0.584 0.876-0.997 2.224-0.636 0.504-1.562-1.64-0.476-1.27-1.905-1.445 0.348-1.833-1.022-2.541-1.588-0.062-0.051-0.62 0.256-0.954 0-0.566-0.436-0.94-1.402-1.587-1.907-0.846-0.657-2.224-0.575-2.541-1.905-2.792-1.255-2.993-1.22-5.718-2.541-0.814 0.032-0.513 1.183-0.954 1.588-0.607-0.337-1.957 0.089-2.224-1.272 0.429-0.678 0.911-1.74 0.913-1.275zm-49.554 101.32c2.668 0.945-1.067-2.229-1.905-0.954-0.589 0.68-0.646 1.895-1.905 1.905-1.292-0.507-0.982-2.619-1.905-3.495-2.908 0.289 0.943 3.469-1.908 3.812-1.192-1.188-0.494-2.295-0.951-4.128-2.319-1.557-4.351-2.96-7.308-3.812-0.279 0.777-0.285 1.832-1.27 1.904-0.855-0.625-0.861-2.102-1.271-3.174-2.924 3.443-2.337 8.686-1.27 13.338 1.347 5.873 5.437 11.457 9.528 12.708 1.171 1.825 3.042 2.564 4.449 3.492 2.249 1.486 3.945 3.02 6.669 2.859 0.235-1.295-1.024-1.094-0.636-2.541 1 0.364 0.773-0.499 1.272-0.636 0.093 0.648 0.858 0.625 0.954 1.271 0.052 1.003-0.845 1.06-0.636 2.223 1.36 0.228 2.291 0.885 3.492 1.272 0.543-1.789 1.815-2.847 2.226-4.767-3.27-4.669-6.266-11.562-4.449-19.375-0.582-0.476-0.791-1.326-1.587-1.59-0.675 1.18 0.341 2.188-0.954 2.859-0.476-0.688-1.59-0.739-1.587-1.905 0.319-0.39 0.301-1.15 0.952-1.24zm1.59 24.78c0.085-0.432-0.196-1.24-0.318-0.636-0.085 0.44 0.196 1.24 0.318 0.64z" fill-rule="evenodd"/>
<path clip-rule="evenodd" d="m77.189 26.046c0.636-0.739 0.928 0.276 1.905 0.636v1.905c-0.256 0.274-0.871 0.188-0.954 0.636-1.176-0.2-1.771-0.982-1.587-2.541 0.124-0.165 1.543-0.471 0.636-0.636z" fill-rule="evenodd"/>
<path clip-rule="evenodd" d="m97.517 26.682c0.062-0.36 0.318-0.177 0.318 0 0.354-1.021 2.088-0.673 2.541 0 0.229 0.972-0.548 0.935-0.318 1.905-1.429 0.104-1.741-0.727-2.543-1.905z" fill-rule="evenodd"/>
<path clip-rule="evenodd" d="m99.741 32.4c0.989-0.703 1.566 0.026 2.541 0v1.905c-0.637-0.108-0.993 0.064-0.952 0.636-0.426-0.064-0.592-1.319-0.636 0-0.06-0.832-0.764-1.974-0.949-2.541z" fill-rule="evenodd"/>
<path clip-rule="evenodd" d="m17.789 35.894c0.672 0.29-0.6 1.276-0.318 2.223-1.143 0.191-0.936-0.969-1.905-0.953-0.137-1.407 0.53-2.011 1.59-2.223 0.323 0.052 0.31 1.939 0.633 0.953z" fill-rule="evenodd"/>
<path clip-rule="evenodd" d="m66.389 37.482c-0.127-0.761 1.447 0.176 0.954-0.954 0.543-0.066 0.822 0.543 0.951 0 0.323 0.207 0.329 0.731 0.954 0.636 0.184 1.244-0.274 1.844-0.636 2.541-0.462-0.959-1.029 0.1-1.587 0-0.29-0.253-0.463-1.854-0.636-2.223z" fill-rule="evenodd"/>
<path clip-rule="evenodd" d="m80.999 40.976c0.362 0.061 0.179 0.319 0 0.318 0.732-0.31 2.808 0.979 1.59 2.541-1.104-0.247-1.476 0.04-2.223-0.952-0.153-1.001 0.452-1.243 0.633-1.907z" fill-rule="evenodd"/>
<path clip-rule="evenodd" d="m23.507 83.858c-0.587 0.048-0.194 1.075-0.636 1.271-0.543 0.066-0.822-0.542-0.952 0-1.628-1.232-1.651-2.487 0-3.177-0.522 0.218 0.471 0.662 0.952 0 0.163 1.003 0.936 1.395 0.954 2.541-0.31-0.01-0.246-0.389-0.318-0.635z" fill-rule="evenodd"/>
<path clip-rule="evenodd" d="m133.41 88.304c0.059-0.361 0.317-0.176 0.314 0 0.902 0.054 0.621-1.074 1.908-0.635 0.06 1.692 0.419 2.265-0.636 3.176-1.3-0.062-0.87-1.871-1.58-2.541z" fill-rule="evenodd"/>
<path clip-rule="evenodd" d="m83.225 96.564c-0.453-0.936-0.962-2.006-0.318-3.177 1.624 0.067 2.102 1.285 2.541 2.541-0.548 0.408-1.029 0.491-2.223 0.636z" fill-rule="evenodd"/>
<path clip-rule="evenodd" d="m97.835 111.17c0.06-0.361 0.317-0.176 0.317 0 0.541 0.116 0.6-0.248 0.636-0.636 0.427 0.064 0.59 1.318 0.634 0 1.127-0.171 0.783 1.127 1.907 0.954 0.13 0.765-0.581 0.69-0.317 1.587-1.872 0.63-2.586 0.05-3.175-1.9z" fill-rule="evenodd"/>
<path clip-rule="evenodd" d="m34.625 115.62c-0.439-0.193-0.049-1.22-0.636-1.27 0.297-1.104 1.277 0.293 0.954-1.59 0.995 0.595 1.352 1.825 1.587 3.178-0.793-0.039-0.995-0.607-1.269 0.317-0.297-0.181-0.481-0.884-0.636-0.317-0.362-0.06-0.176-0.32 0-0.32z" fill-rule="evenodd"/>
<path clip-rule="evenodd" d="m56.543 119.12c0.359 0.062 0.176 0.32 0 0.317 0.494 0.111 2.624-0.821 2.541 1.27-0.75 0.311-1.215 0.904-1.908 1.271-0.605-0.54-1.388-1.95-0.633-2.86z" fill-rule="evenodd"/>
<path clip-rule="evenodd" d="m96.566 126.74c-0.347 0.08-0.217 0.633-0.636 0.636-1.386-0.297-1.83-1.957-0.954-2.859 0.851 0.549 1.207-0.225 1.905 0.637-0.099 0.741-0.62 1.311 0 1.904-0.168 0.48-0.331 0.02-0.315-0.32z" fill-rule="evenodd"/>
<path clip-rule="evenodd" d="m110.22 137.86c0.439-0.067 0.727-0.846 2.226-0.637 0.37 0.962 0.962 1.701 0.315 2.859-0.724 0.437-1.194-0.816-1.269 0-1-0.16-0.51-1.82-1.27-2.22z" fill-rule="evenodd"/>
<path clip-rule="evenodd" d="m120.39 161.04c1.218-1.543 3.547-0.145 2.541 1.908-1.35 0.134-1.474-0.59-1.908-0.32-0.49-0.07 0.19-1.18-0.63-1.59z" fill-rule="evenodd"/>
<metadata><rdf:RDF><cc:Work><dc:format>image/svg+xml</dc:format><dc:type rdf:resource="http://purl.org/dc/dcmitype/StillImage"/><cc:license rdf:resource="http://creativecommons.org/licenses/publicdomain/"/><dc:publisher><cc:Agent rdf:about="http://openclipart.org/"><dc:title>Openclipart</dc:title></cc:Agent></dc:publisher><dc:title>popovers</dc:title><dc:date>2007-11-13T05:44:50</dc:date><dc:description>Ready-To-Use Food And Drink Spot Illustrations by Susan Gaber 1982&#xD;\n&#xD;\nBook as a whole is under copyright but contents are copyright-free&#xD;\n&#xD;\nFrom archive.org</dc:description><dc:source>http://openclipart.org/detail/8161/popovers-by-johnny_automatic-8161</dc:source><dc:creator><cc:Agent><dc:title>johnny_automatic</dc:title></cc:Agent></dc:creator><dc:subject><rdf:Bag><rdf:li>baked goods</rdf:li><rdf:li>clip art</rdf:li><rdf:li>clipart</rdf:li><rdf:li>externalsource</rdf:li><rdf:li>food</rdf:li><rdf:li>image</rdf:li><rdf:li>media</rdf:li><rdf:li>png</rdf:li><rdf:li>public domain</rdf:li><rdf:li>rolls</rdf:li><rdf:li>svg</rdf:li></rdf:Bag></dc:subject></cc:Work><cc:License rdf:about="http://creativecommons.org/licenses/publicdomain/"><cc:permits rdf:resource="http://creativecommons.org/ns#Reproduction"/><cc:permits rdf:resource="http://creativecommons.org/ns#Distribution"/><cc:permits rdf:resource="http://creativecommons.org/ns#DerivativeWorks"/></cc:License></rdf:RDF></metadata></svg>
